<?xml version="1.0" encoding="utf-8"?>
<!-- Generator: Adobe Illustrator 19.0.0, SVG Export Plug-In . SVG Version: 6.00 Build 0)  -->
<svg version="1.1" id="layer_1" xmlns="http://www.w3.org/2000/svg" xmlns:xlink="http://www.w3.org/1999/xlink" x="0px" y="0px"
	 viewBox="0 0 2161 571.7" style="enable-background:new 0 0 2161 571.7;" xml:space="preserve">
<style type="text/css">
	.st0{fill:#FFFFFF;}
</style>
<path class="st0" d="M175.3,287.3c-7.1-4.6-13.8-8.4-19.9-11.4c-6.2-3-11.6-5.6-16.4-7.8c-4.7-2.2-8.4-4-10.9-5.2
	c-11.7-5.4-17.6-11.5-17.6-18.5c0-11.4,8-17.1,24-17.1s34.1,5.2,54.3,15.6c2.8-1.9,7.7-11.3,14.7-28.2c7-16.9,10.4-30.9,10.4-42
	c0-0.9,0-1.9,0-2.8c-0.6-7.9-10.6-14.3-29.9-19.2c-19.3-4.9-40.3-7.3-63.1-7.3c-33.5,0-60.7,9.6-81.4,28.7
	c-20.7,19.1-31.1,42.6-31.1,70.4c0,27.8,6.3,50.8,19,68.8c4.4,6.6,10.8,13,19.2,19.2c8.4,6.2,15.1,10.6,20.2,13.3
	c5.1,2.7,12.6,6.4,22.8,11.1c10.1,4.8,17.1,9,20.9,12.6c3.8,3.6,5.7,7.8,5.7,12.6c0,10.4-6.7,15.7-20.2,15.7
	c-13.5,0-27.5-4.1-42.2-12.3c-14.7-8.2-25.1-14.7-31.1-19.4c-5.4,4.1-10.4,12.6-15.2,25.4c-4.7,12.8-7.1,25.7-7.1,38.7
	c0,13,5.7,24,17.1,33.2c11.4,9.2,24.8,15.4,40.1,18.5c15.3,3.2,32.5,4.7,51.5,4.7c38.9-0.6,67.7-11.7,86.3-33.2
	c18.7-21.5,28-49.2,28-83c0-25.9-8.4-46.8-25.1-62.6C190.1,297.9,182.4,291.9,175.3,287.3z"/>
<path class="st0" d="M379.6,238.2c-9.2,0-22.6,2.7-40.3,8.1v-94.9c0-5.7-13.3-8.5-39.8-8.5c-6.6,0-14.9,0.5-24.7,1.4
	c-9.8,1-14.7,2.5-14.7,4.7v325c0,4.4,13.2,6.6,39.6,6.6c26.4,0,39.6-1.4,39.6-4.3V322.6c9.2-6.6,17.2-10,24.2-10
	c10.1,0,15.2,7.8,15.2,23.3v139.5c0,2.2,13.9,3.8,41.7,4.7c24.7,0,37-1.4,37-4.3V328.8c0-34.8-6.9-58.6-20.9-71.4
	C422.6,244.6,403.6,238.2,379.6,238.2z"/>
<path class="st0" d="M497.7,244.3v232.9c0,2.2,14.5,3.3,43.4,3.3c28.9,0,43.4-1.3,43.4-3.8V243.8c0-1.9-14.5-2.8-43.4-2.8
	C512.2,241,497.7,242.1,497.7,244.3z"/>
<path class="st0" d="M756.7,237.7c-11.7,0-23.2,3.9-34.4,11.6c-11.2,7.8-20.2,18.1-26.8,31.1c0-11.1-4.7-21-14.2-29.7
	c-9.5-8.7-21.3-13-35.6-13c-20.2,0-30.4,17.1-30.4,51.2c0,9.2,1.5,16.8,4.5,23c3,6.2,7,9.3,12.1,9.3h12.8v157.5
	c0,1.9,14.4,3.2,43.2,3.8c28.8,0,43.2-1.1,43.2-3.3V346.8c0-19,6-28.5,18-28.5c4.1,0,8.8,1.2,14,3.6c5.2,2.4,8.1,3.6,8.8,3.6
	c0.6,0,2.5-2.9,5.7-8.6c3.2-5.7,6.2-14.9,9.3-27.5c3-12.6,4.5-21.4,4.5-26.3c0-4.9-0.5-8.6-1.4-11.1
	C786.1,242.4,775.1,237.7,756.7,237.7z"/>
<path class="st0" d="M957.9,242.4h-40.3l-0.5-13.3v-30.4c0-5.1-13.4-7.6-40.1-7.6c-26.7,0-40.1,3.2-40.1,9.5v41.7h-25.1
	c-3.5,0-5.8,4.1-6.9,12.3c-1.1,8.2-1.7,15.2-1.7,20.9c0,21.8,3.2,32.7,9.5,32.7h24.2v167.9c0,2.8,15.8,4.9,47.4,6.2
	c26.6,0,39.9-1.9,39.9-5.7V308.8h33.7c5.4,0,8.1-11.1,8.1-33.2C965.9,253.5,963.2,242.4,957.9,242.4z"/>
<path class="st0" d="M1208.6,287.3c-7.1-4.6-13.8-8.4-19.9-11.4c-6.2-3-11.6-5.6-16.4-7.8c-4.7-2.2-8.4-4-10.9-5.2
	c-11.7-5.4-17.6-11.5-17.6-18.5c0-11.4,8-17.1,24-17.1c16,0,34.1,5.2,54.3,15.6c2.8-1.9,7.7-11.3,14.7-28.2
	c7-16.9,10.4-30.9,10.4-42c0-0.9,0-1.9,0-2.8c-0.6-7.9-10.6-14.3-29.9-19.2c-19.3-4.9-40.3-7.3-63.1-7.3c-33.5,0-60.7,9.6-81.4,28.7
	c-20.7,19.1-31.1,42.6-31.1,70.4c0,27.8,6.3,50.8,19,68.8c4.4,6.6,10.8,13,19.2,19.2c8.4,6.2,15.1,10.6,20.2,13.3
	c5.1,2.7,12.6,6.4,22.8,11.1c10.1,4.8,17.1,9,20.9,12.6c3.8,3.6,5.7,7.8,5.7,12.6c0,10.4-6.7,15.7-20.2,15.7
	c-13.4,0-27.5-4.1-42.2-12.3c-14.7-8.2-25.1-14.7-31.1-19.4c-5.4,4.1-10.4,12.6-15.2,25.4c-4.7,12.8-7.1,25.7-7.1,38.7
	c0,13,5.7,24,17.1,33.2c11.4,9.2,24.7,15.4,40.1,18.5c15.3,3.2,32.5,4.7,51.5,4.7c38.9-0.6,67.7-11.7,86.3-33.2
	c18.7-21.5,28-49.2,28-83c0-25.9-8.4-46.8-25.1-62.6C1223.4,297.9,1215.7,291.9,1208.6,287.3z"/>
<path class="st0" d="M1315.6,269.5c-20.9,21.2-31.3,50.6-31.3,88.3s8.5,67.7,25.6,90.1c17.1,22.5,40.2,33.7,69.3,33.7
	c8.9,0,19.6-1.3,32.3-3.8V565c0,4.1,13.6,6.2,40.8,6.2c27.2,0,40.8-2.1,40.8-6.2V262.8c-24.7-16.8-55.2-25.1-91.6-25.1
	C1365.1,237.7,1336.5,248.3,1315.6,269.5z M1411.4,404.7c-4.7,1.6-9.6,2.4-14.7,2.4c-5.1,0-10-1.6-14.7-4.7
	c-8.5-5.7-12.8-19.1-12.8-40.1c0-21,3.6-34.7,10.9-41c4.7-4.4,10-6.7,15.7-6.7c5.7,0,10.9,0.6,15.7,1.9V404.7z"/>
<path class="st0" d="M1748.7,400.9h-12.3V245.3c0-3.2-13.5-4.8-40.3-4.8c-26.9,0-40.3,1.6-40.3,4.8v152.3c-9.5,6.6-18,10-25.6,10
	c-10.1,0-15.2-7.9-15.2-23.7V245.3c0-3.5-13.6-5.2-40.8-5.2c-27.2,0-40.8,1.7-40.8,5.2v139.9c0,35.4,7.3,60.8,21.8,76.1
	c14.5,15.3,37.2,23,67.8,23c22.1,0,42.8-8.5,62.1-25.6l0.5-0.5c10.1,17.4,25.8,26.1,47,26.1c10.7,0,19.3-7,25.6-20.9
	c4.4-10.7,6.6-21.3,6.6-31.8C1764.8,411.2,1759.5,400.9,1748.7,400.9z"/>
<path class="st0" d="M2143.9,399.5h-16.6v-250c0-1.9-5.6-3.4-16.8-4.5c-11.2-1.1-21.1-1.7-29.7-1.7c-25,0-37.5,2.4-37.5,7.1v90.1
	c-8.9-1.9-17.6-2.8-26.1-2.8c-29.4,0-53.9,10.7-73.5,32c-19.6,21.3-29.4,51.5-29.4,90.6c0,39.1,9.3,69.5,28,91.3
	c18.6,21.8,41.1,32.7,67.4,32.7c26.3,0,48.1-8.4,65.5-25.1l4.3,6.2c2.9,4.4,8.3,8.7,16.4,12.8c8.1,4.1,17.3,6.2,27.7,6.2
	c13.9,0,24-7,30.4-20.9c4.4-10.1,6.6-18.7,6.6-25.9c0-7.1-0.3-12.7-1-16.8C2157,406.6,2151.8,399.5,2143.9,399.5z M2043.3,399
	c-5.7,5.4-11.6,8.1-17.8,8.1c-6.2,0-11.8-3.6-16.8-10.7c-5.1-7.1-7.6-18.7-7.6-34.9c0-31.9,8.8-47.9,26.6-47.9
	c5.1,0,10.3,1.6,15.7,4.7V399z"/>
<path class="st0" d="M1793.8,244.3v232.9c0,2.2,14.5,3.3,43.4,3.3c28.9,0,43.4-1.3,43.4-3.8V243.8c0-1.9-14.5-2.8-43.4-2.8
	C1808.3,241,1793.8,242.1,1793.8,244.3z"/>
<path class="st0" d="M1866.4,37.6c-7.1-19.9-16.8-37.1-29.2-37.1c-12.3,0-22,17.2-29.1,37.2l0-0.1l-26.3,54.5l12.1,42.9
	c0,0.2-0.1,31.5-0.1,31.5c0,1.9,14.5,12.9,43.4,12.9c28.9,0,43.4-11.2,43.4-13.4v-30.7l12.8-43.2L1866.4,37.6L1866.4,37.6z
	 M1812.7,135.2c-4.2,0-7.6-3.4-7.6-7.6c0-4.2,3.4-7.5,7.6-7.5c4.2,0,7.5,3.4,7.5,7.5C1820.3,131.8,1816.9,135.2,1812.7,135.2z
	 M1869.7,127.7c0,4.2-3.4,7.6-7.5,7.6c-4.2,0-7.6-3.4-7.6-7.6c0-4.2,3.4-7.5,7.6-7.5C1866.3,120.1,1869.7,123.5,1869.7,127.7z"/>
<path class="st0" d="M569.9,37.6c-7.1-19.9-16.8-37.1-29.2-37.1c-12.4,0-22,17.2-29.1,37.2l0-0.1l-26.3,54.5l12.1,42.9
	c0,0.2-0.1,31.5-0.1,31.5c0,1.9,14.5,12.9,43.4,12.9c28.9,0,43.4-11.2,43.4-13.4v-30.7l12.8-43.2L569.9,37.6L569.9,37.6z
	 M516.2,135.2c-4.2,0-7.6-3.4-7.6-7.6c0-4.2,3.4-7.5,7.6-7.5c4.2,0,7.5,3.4,7.5,7.5C523.8,131.8,520.4,135.2,516.2,135.2z
	 M573.2,127.7c0,4.2-3.4,7.6-7.5,7.6c-4.2,0-7.6-3.4-7.6-7.6c0-4.2,3.4-7.5,7.6-7.5C569.8,120.1,573.2,123.5,573.2,127.7z"/>
</svg>
