<?xml version="1.0" encoding="utf-8"?>
<!-- Generator: Adobe Illustrator 19.0.0, SVG Export Plug-In . SVG Version: 6.00 Build 0)  -->
<svg version="1.1" id="Layer_1" xmlns="http://www.w3.org/2000/svg" xmlns:xlink="http://www.w3.org/1999/xlink" x="0px" y="0px"
	 viewBox="0 0 432 648" style="enable-background:new 0 0 432 648;" xml:space="preserve">
<style type="text/css">
	.st0{fill:#2C3E50;}
	.st1{fill:#273140;}
	.st2{fill:#89BEBE;}
	.st3{fill:#628888;}
	.st4{fill:#FFFFFF;}
	.st5{fill:#1E1B1C;}
	.st6{fill:#9DD2D2;}
</style>
<path id="shirt_fill_2_" class="st0" d="M300.6,273.4c-0.3-1.6,0-3.4,0-5.1c0.5,0,1-0.1,1.6-0.1c1.6,9.5,3.3,19,4.9,28.5
	c0.5,0.3,1,0.6,1.5,0.9c7.7-8,15.5-15.9,23.4-24.1c-3.8-5.3-7-10.8-11.2-15.3c-6.5-6.9-13.7-13.1-20.5-19.6
	c-4.8-4.6-4.7-4.6-10.8-1.5c-18.7,9.5-38.4,16-59.2,18.9c-1.7,0.2-3.8,1.8-4.8,3.4c-3.8,6.1-7.1,12.6-10.8,18.8
	c-2.1,3.6-3.4,3.6-5.8,0.1c-4.1-5.8-8.1-11.6-12.3-17.3c-0.9-1.2-2.6-2.3-4.1-2.4c-21.4-2.2-42.8-4.7-62.7-13.8
	c-1.4-0.6-3.9-0.1-5.2,0.9c-13.8,10.2-25.1,22.8-34.7,37c-1.1,1.7-1.9,3.6-2.9,5.4c7.6,6.8,16.4,10.4,25.8,12.4c4.9,1,6,0.1,6.3-4.6
	c0.3-5.1,0.2-10.2,0.3-15.3c0-1.4,0.4-2.7,0.6-4.1c0.4,0,0.8,0,1.2,0c0.3,1.1,0.9,2.2,1,3.4c1.1,12.6,0.4,25.2-2.8,37.5
	c-0.8,3.1-0.1,4.5,2.4,6.2c14.7,10.2,31,16.9,48.3,21.3c14.5,3.7,29.1,7.2,44.3,6.8c21.7-0.5,42.2-5.9,62.1-14.1
	c11-4.5,21.5-10.1,30.7-17.7c1.2-1,2.6-3.7,2.1-4.8C303.8,301.6,303,287.3,300.6,273.4z"/>
<g id="shirt_shading_1_">
	<path class="st1" d="M316.6,289.2c-1.4,0.5-5.1,2.6-6.2,1c-1.1-1.4-1.3-3.9-1.7-5.6c-1-3.7-2.8-7.2-3.9-10.8c0,0,0-0.1,0-0.1
		c-1.3-1.3-2.2-3.1-3-4.9c-0.6,0-1.1,0.4-1.1,1.2c0.1,1,0.6,1.8,1.1,2.6c0.5,2.5,1.4,5,2.2,7.4c-0.2,3.2,0.4,6.8,1.7,10
		c0,0.3,0.1,0.6,0.1,0.9c0.2,1.5,0.3,3.7,1.3,5c-0.2,0.3-0.2,0.7-0.1,1c0.2,0.7,0.9,1,1.6,0.9c0.5-0.1,0.9-0.4,1.2-0.9
		c2.8-0.6,6.3-4.7,7.9-5.4C318.9,291,318,288.8,316.6,289.2z"/>
	<path class="st1" d="M119.3,280.2c0,0.3,0,0.5,0,0.8c-0.1,0.1-0.2,0.3-0.2,0.5c-0.3,1.9-1,3.7-1.4,5.6c-0.2,0.7-0.4,1.3-0.6,1.9
		c-0.3,0.9-0.3,1.8-0.8,2.7c-0.2,0.3-0.2,0.6-0.1,0.9c-0.5,1.9-1.3,3.7-2.3,5.6c-0.4,0.5-0.8,0.8-1.2,1.1c-1.2-0.1-2.3-0.2-3.5-0.4
		c-1.6-0.2-2.3,2.2-0.7,2.4c1,0.2,2.1,0.3,3.1,0.4c0.2,0.2,0.5,0.3,0.8,0.3c0.2,0,0.4,0,0.7,0c0.4,0.2,0.9,0.2,1.3,0
		c0.1,0,0.2,0,0.3,0c0.8,0,1.6,0.1,2.4,0.1c0.9,0,1.3-0.8,1.2-1.5c0.3-0.4,0.6-0.8,0.8-1.4c1-3,0.8-6.5,0.7-9.8
		c0.1-0.5,0.3-1.1,0.4-1.5c0.2-0.7,0.4-1.5,0.6-2.2c0.3-0.2,0.5-0.5,0.5-1c0-1.5,0.7-2.8,0.6-4.3
		C121.8,278.6,119.3,278.5,119.3,280.2z"/>
	<path class="st1" d="M301.5,236.3c-0.1-0.3-0.2-0.5-0.3-0.8c-0.6,0.4-1.2,0.8-1.8,1.2c0.2-0.6,0.1-1.1-0.8-1.7
		c-2.7-1.8-6.6-0.2-10,1.9c-4.2,1.1-7.9,3.7-12.4,5c-4.2,1.3-8,2.8-12.1,4.3c-4.6,1.7-9.6,2.4-14.4,3.2c-0.7,0.1-0.9,0.6-0.9,1.1
		c-7.8,1.5-15.6,2.9-23.5,3.7c-0.2-0.4-0.5-0.8-1.1-0.8c-6.9-0.1-13.8,1-20.7,1.4c-7.2,0.4-14.5,0.3-21.7,0.3
		c-7.6-0.9-15.2-1.8-22.7-3.8c-8.5-2.3-17-3.8-25.3-6.7c-4.1-1.4-9.3-2.6-12.4,0.9c-0.4-0.2-0.8-0.4-1.1-0.6
		c-0.2,0.8-0.6,1.6-1.2,2.2c0.4,0.2,0.9,0.4,1.3,0.7c0.2,0.6,1,1,1.7,0.8c27,12.7,57.1,17.3,86.8,17.7c17.1,0.3,32.9-4.5,49.2-9.3
		c4-1.2,8.1-2.1,12-3.6c4.3-1.6,8.3-3.9,12.6-5.7c6.8-2.9,13.8-5.9,19.8-10.3C302.2,237.2,301.8,236.8,301.5,236.3z"/>
</g>
<g id="skin_fill_2_">
	<path class="st2" d="M210.6,274.6c0.4,0.5,1,0.9,1.8,1.7c3.5-6.5,6.8-12.7,10.6-19.8c-8.4,0.7-15.8,1.4-24,2.1
		C203.1,264.4,206.8,269.5,210.6,274.6z"/>
	<path class="st2" d="M290.3,154.4c-2.3-11.5-5.7-22.8-9.6-33.8c-5.8-16.3-12.9-32-22.8-46.3C245,55.7,231.9,37.2,219,18.6
		c-1.6-2.3-2.7-4.9-4.1-7.6c-0.8,0.7-1.4,1.1-1.7,1.7C200,31,186.2,49,173.6,67.8c-16.8,25.1-31.1,51.5-39,81.1
		c-7.7,28.8-10.7,57.8-6.8,87.3c0.2,1.8,1.6,4.1,3.1,4.8c10.7,5.4,22.3,8.2,34.1,9.9c15.4,2.2,30.9,2.4,46.6,1.1
		c26.9-2.2,52.7-8.3,77.6-18.7c4.5-1.9,5.9-4.5,6-8.8C295.9,201,295,177.5,290.3,154.4z M164.3,193.4c-0.3,0.1-0.6,0.2-1,0.2
		c-3.1,0.6-6.3,0.2-8.7-2c-2.6-2.4-3.3-6.2-2-9.5c2.3-5.8,9.9-10.5,15.7-6.5c5.4,3.6,5.3,11.3,1.6,16.1
		C168.6,193.6,166.4,194.6,164.3,193.4z M177.4,204.2c-0.3,0.7-0.5,1.4-1.1,1.9c-0.2,0.1-0.4,0.3-0.6,0.4c-0.5,0.8-1.5,1.4-2.4,1.6
		c-1.1,0.3-2.3,0.1-3.3-0.4c-0.4-0.2-0.7-0.5-1-0.9c-1.4-1.2-1.8-3.1-1.2-4.8c0.1-0.9,0.6-1.8,1.3-2.5c0.7-0.7,1.5-1,2.4-1.4
		c1.7-0.6,3.3,0.3,4.5,1.4c0.6,0.5,1.2,1.4,1.4,2.2C177.5,202.6,177.7,203.5,177.4,204.2z M248.6,192c-0.8,0.8-1.7,1.5-2.8,1.8
		c-5.9,1.3-10.7-4.7-8.6-10.2c1.8-5,7.3-10,13-8.1c5.8,1.9,6.6,9,5.2,14.1c-0.8,2.8-3.5,3.5-5.6,2.7
		C249.4,192.2,249,192.1,248.6,192z M261.6,207.6c-0.5,0.5-1.2,0.9-1.9,1.1c-0.6,0.3-1.2,0.3-1.9,0.3c-0.4,0.2-0.9,0.3-1.4,0.3
		c-1.1,0-2.2-0.5-3-1.2c-0.4-0.4-0.7-0.9-0.9-1.4c-0.2-0.2-0.4-0.5-0.6-0.8c-1-1.6-0.7-3.7,0.6-5.1c0.1-0.1,0.1-0.2,0.2-0.4
		c1.1-1.5,2.4-2.4,4.3-2.5c1.9-0.1,3.9,0.9,4.9,2.4c0.8,1.2,0.9,2.7,0.9,4.2C262.8,205.7,262.3,206.8,261.6,207.6z"/>
	<path class="st2" d="M404,563.3c-0.5-2.6-0.5-5.3-0.3-7.9c0.8-7.9,3-15.7,2.7-23.5c-0.9-23.4-6-46.1-16.2-67.2
		c-6.9-14.2-15.1-27.9-22.3-42c-5.7-11.2-11.6-22.3-14.3-34.8c-2.6-12-1.9-24-1.3-35.9c0.9-19-1.4-37.3-9.5-54.7
		c-3.1-6.6-6.6-13-10.1-19.9c-6.8,7.3-13.1,14-19.4,20.9c2,3.6,5,8.1,7.1,13c6.2,14.7,6.7,30.2,6.2,45.9c-0.5,17.1-0.4,34,8.4,49.6
		c5,8.9,9.9,17.8,14.8,26.8c9.5,17.2,19.9,34,28.3,51.8c9.7,20.6,16.5,42.2,15,65.5c-0.1,1.9-0.8,3.9-1.8,5.5
		c-3.2,4.5-7.1,8.5-9.9,13.2c-2.3,3.9-5,8.5-4.9,12.7c0.2,13.5,1.5,27,2.4,41.3c1.3-0.7,2-0.8,2.3-1.2c8-10,16.5-19.8,23.8-30.3
		c2.4-3.5,2.7-9.1,2.5-13.7C407.1,573.2,404.9,568.3,404,563.3z M390.9,603.2c-0.1,0.3-0.1,0.5-0.2,0.7c-0.1,0.2-0.1,0.5-0.2,0.7
		c-0.1,0.5-0.3,0.9-0.5,1.4c-0.4,0.9-1,1.8-1.9,2.5c-0.4,0.3-1,0.6-1.5,0.6c-0.5,0.1-1.1,0-1.5-0.1c-0.9-0.3-1.6-0.8-2.1-1.3
		c-1.1-1-1.6-2.1-2-2.9c-0.3-0.8-0.3-1.3-0.3-1.3s0.2,0.4,0.6,1.1c0.5,0.6,1.2,1.5,2.3,2.2c0.5,0.3,1.2,0.7,1.8,0.8
		c0.6,0.1,1.2,0,1.7-0.4c0.5-0.4,0.9-1.1,1.2-1.8c0.2-0.4,0.3-0.8,0.4-1.2c0.1-0.2,0.1-0.4,0.2-0.6l0.2-0.6c0.2-0.9,0.3-1.7,0.4-2.6
		c0-0.8,0-1.6-0.3-2.1c-0.1-0.2-0.3-0.4-0.5-0.5c-0.2-0.1-0.5-0.2-0.9-0.2c-0.7,0-1.4,0.1-2,0.3c-1.3,0.4-2.3,0.9-3,1.2
		c-0.7,0.3-1.1,0.6-1.1,0.6s0.3-0.3,0.9-0.9c0.3-0.3,0.7-0.6,1.2-0.9c0.5-0.3,1-0.7,1.7-1c0.7-0.3,1.4-0.6,2.3-0.7
		c0.5,0,1,0,1.5,0.2c0.5,0.2,1,0.6,1.3,1.1c0.6,1,0.7,2.1,0.7,3C391.2,601.3,391,602.2,390.9,603.2z M399.5,581.7c0,0.3,0,0.7-0.1,1
		c-0.1,0.7-0.2,1.3-0.3,2c-0.3,1.3-0.8,2.6-1.8,3.7c-0.5,0.5-1.2,1-1.9,1.2c-0.7,0.2-1.4,0.3-2.1,0.2c-1.3-0.1-2.3-0.7-3.1-1.2
		c-1.7-1.1-2.7-2.4-3.3-3.3c-0.6-1-0.7-1.6-0.7-1.6s0.3,0.5,1.1,1.3c0.8,0.7,2,1.6,3.6,2.4c0.8,0.3,1.7,0.6,2.6,0.6
		c0.9,0,1.6-0.3,2.1-1c0.5-0.7,0.9-1.7,1.1-2.8c0.1-0.5,0.2-1.1,0.2-1.7c0-0.3,0-0.6,0.1-0.9l0-0.9c0-1.2,0-2.4-0.1-3.5
		c-0.1-1.1-0.4-2.1-0.9-2.8c-0.2-0.3-0.5-0.5-0.8-0.6c-0.3-0.1-0.8-0.1-1.2,0c-0.9,0.2-1.8,0.5-2.6,0.9c-1.6,0.8-2.9,1.7-3.7,2.4
		c-0.9,0.6-1.4,1-1.4,1s0.3-0.5,1-1.4c0.4-0.4,0.8-0.9,1.3-1.5c0.5-0.5,1.2-1.2,2-1.7c0.8-0.6,1.7-1.2,2.9-1.5
		c0.6-0.2,1.3-0.3,2.1-0.1c0.8,0.1,1.5,0.6,2.1,1.1c1,1.2,1.4,2.6,1.7,3.9c0.2,1.3,0.3,2.6,0.2,3.9
		C399.5,581.1,399.5,581.3,399.5,581.7z"/>
	<path class="st2" d="M174.5,49.8c-1.4,1.5-2.8,3-4.3,4.4c-0.9,0-1.9,0.4-2.8,1.2c-2.5,2.4-5.1,4.6-7.5,7.1c-0.5,0.6-1,1.1-1.5,1.7
		c-0.3,0.3-0.7,0.6-1,0.9c-0.5,0.2-1,0.5-1.4,0.9c-1.6,1.3-3,2.7-4.5,4.1c-0.7,0.2-1.4,0.5-2,1.1c-1,0.9-2,1.8-3,2.8
		c-2.2,1.8-4.5,3.3-6.7,5c-3.5,2.7-6.3,6.1-9.9,8.8c-3.5,2.6-6.2,5.7-9.2,8.8c-1.2,1.3-2.3,2.5-3.4,3.8c-0.8,0.1-1.7,0.5-2.4,1.5
		c-8.8,11.2-13.6,24.4-14.1,38.6c-0.3,7.6-0.7,15.4,0.6,22.9c0.6,3.7,1.6,8.1,3.1,12c-0.2,0.6-0.2,1.3-0.1,2.1
		c0.5,2.7,1.8,4.9,2.9,7.4c1.2,2.8,1.7,6,2.8,8.9c2.2,5.9,5.6,11.1,7.1,17.3c0.6,2.7,3.2,3.5,5.3,2.8c0.2,0.5,0.5,0.9,0.7,1.4
		c0-0.6-0.1-1.1-0.1-1.7c1.4-0.6,2.4-1.9,2.4-3.7c0.1-10.2-0.8-20.4-0.7-30.6c0.2-10.7,5.5-19.6,7.2-29.9c0.1-0.7,0.1-1.4-0.1-2
		c1.1-3,2.1-6,3.3-8.9c5.3-13.4,11.4-26.5,18.1-39.2c0.9-1.7,0.5-3.4-0.4-4.6c1.2-1.6,2.5-3.3,3.7-4.9c3.2-4.2,6.3-8.1,8.9-12.7
		c2.3-4,4.4-9.9,8.2-12.7c1.1-0.8,1.7-2,1.8-3.1c1.9-1.7,3.7-3.5,5.3-5.3C184.1,51.7,178.1,45.7,174.5,49.8z"/>
	<path class="st2" d="M357.1,498.9c-1.8-3.7-4.6-6.7-7.1-9.9c-2.8-3.7-5.5-7.6-8-11.4c-4.4-6.5-8.2-13.7-10.8-21.1
		c0.1-0.5,0-1.1-0.2-1.8c-4.1-14.1-9.2-28.2-10.6-42.9c-0.7-7.3-0.8-14.7-2.1-21.9c-1.5-7.9-1.3-15.8-1.3-23.7c0-2-1.1-3.2-2.5-3.8
		c-0.6-8.7-1.5-17.4-3.1-26c-0.1-0.5-0.3-0.8-0.7-1c-0.2-1.7-0.4-3.3-0.6-5c-0.1-0.5-0.3-0.9-0.6-1.2c-0.2-0.9-0.4-1.8-0.7-2.7
		c-0.1-0.5-0.4-0.8-0.7-0.9c-0.1-0.3-0.1-0.5-0.2-0.8c-0.5-2-3.3-1.1-3,0.8c0,0,0,0,0,0c-6,4.5-12,8.3-17.9,11.7
		c-0.1-0.2-0.1-0.5-0.2-0.7c-0.5-1.9-3.2-1.4-3.3,0.4c-0.1,1.4-0.1,2.8-0.1,4.2c-0.1-0.6-0.3-1.1-0.4-1.7c-0.5-1.8-3.5-1.5-3.3,0.5
		c0,0.2,0.1,0.5,0.1,0.7c0,0.1,0,0.3,0,0.4c-2.4,1.2-4.7,2.3-7,3.3c-0.6-0.1-1.2,0.1-1.6,0.7c-4.2,1.8-8.3,3.4-12.4,4.7
		c-1-0.4-2.2-0.5-3.5,0.1c-0.1,0-0.1,0-0.2,0.1c-1.1-0.4-2.6-0.1-4.6,1.3c-3.5,0.6-7.2,0.5-10.7,0.8c-4.1,0.4-9.6,1.7-13.5-0.3
		c-3.8-1.9-7.3,2.1-6.3,5.2c-0.5,0-0.9,0-1.4,0.1c0.5,2.3,0.8,4.7,1.3,7c0.9,4.6,1.8,9.2,2.6,13.9c0,0,0,0.1,0,0.1
		c0-0.9,0-1.8,0-2.7c0,0.2,0.1,0.5,0.1,0.7c0.5,3.1,0.9,6.3,1.2,9.4c0.1,0.6,0.2,1.3,0.3,1.9c-0.2,0.4-0.4,0.8-0.5,1.4
		c-1.4,8.3-0.6,16.6,0,25c0.1,2.2,0.2,4.4,0.2,6.6c-0.2,0.3-0.5,0.7-0.6,1.2c-1.9,5-1.5,10.1-1.4,15.3c0,0.1,0,0.1,0,0.2
		c-0.3,1.4-0.5,2.7-0.5,4.1c0,0.7,0.2,1.2,0.4,1.8c-0.1,0.8-0.1,1.7-0.2,2.5c-1.4,9.8-1.9,19.5-2.2,29.4
		c-0.5,12.2-2.2,24.9,0.4,36.8c0,0.1,0,0.2,0,0.3c0,6.6,2.7,13.1,4.1,19.5c1.3,5.7,2.9,11.2,5.1,16.6c4.1,9.9,10.9,18.6,22.5,19
		c5.6,0.2,11.1-3.4,14.6-7.4c3.6-4.2,3.5-9.3,2.2-14.4c-1.6-6.1-2.7-12.7-6.3-18.1c-0.3-0.5-0.7-1-1-1.6c-1.1-6.4-3.1-12.8-6-18.6
		c0.2-1.3,0.2-2.5,0.1-3.8c-0.6-6.5-1.6-13.1-2.6-19.6c-1-6.5-2.1-12.6-2.1-19.2c0-5.7,1.2-12.6-0.8-18.1c0,0,0-0.1-0.1-0.1
		c0.7,0,1.3,0,2,0c0-0.3,0.1-0.6,0.1-0.9c0.2-2.1,0.5-4.1,0.7-6.2c-0.7-0.7-1.1-1.6-1.1-2.9c0-3,0-6.1,0.1-9.1
		c0.8-3.7,1.1-7.4,1.3-11.2c0.2-1,0.4-2,0.6-3.1c1.3-6.8,3.1-13.7,3.5-20.7c0.4,0.1,0.9,0.2,1.3,0.4c-0.1,2-0.1,4,0,6
		c0.1,1.3,0.3,2.6,0.6,3.9c-1.1,2.6-1.1,5.5-0.6,8.5c0.8,5.6,1.4,11.1,1.4,16.7c0.1,13.2,0.3,26.4,0.1,39.6
		c-0.1,5.7,0.4,11.3,2,16.7c1.8,6,1.4,12.2,3,18.2c1.2,4.7,2.6,9.5,4.1,14.1c0,0,0,0,0,0c-0.1,6.1,3.4,10.6,6.5,15.5
		c3.4,5.4,6.6,11.5,12,15.3c8,5.6,17.9,2.3,23.3-4.8c1-0.4,2-1,2.9-1.8c2.1-1.9,2.8-5.1,2.6-7.8c-0.2-2.8-1.8-5.2-2-7.9
		c-0.1-1.8-1.1-3-2.3-3.6c-0.4-0.5-0.9-1-1.4-1.4c0,0,0-0.1-0.1-0.1c-8.9-13.5-12.9-29.9-16.7-45.4c-2-8.3-3.1-16.5-4.1-24.9
		c-0.1-1.2-0.4-2.3-0.6-3.5c0.9-1.2,1.2-2.8,0.3-4.5c-0.7-1.3-0.3-3.5-0.3-5c0-2.1-0.3-4.1-0.8-6.1c-0.1-0.5-0.3-0.8-0.5-1.2
		c-0.1-6.7,0.2-13.4,2.4-19.9c0-0.1,0.1-0.2,0.1-0.3c1.2,0.1,2.4,0.6,3.2,1.6c0.6,6,1.4,12,1.2,18.1c-0.1,2-0.2,4.1-0.1,6.2
		c-0.1,0.4-0.2,0.8-0.2,1.2c0,8.5,1.9,16.7,4.2,24.8c2.5,8.9,5.4,17.7,9,26.3c3.4,8.1,7.3,14.9,12.9,21.7c4.8,6,9.3,12.1,17.1,14.2
		C349.8,526.8,363.3,511.6,357.1,498.9z"/>
	<path class="st2" d="M73.1,330.7c-3.5,14.9-2,30.2-0.7,45.2c1.4,16.4-0.5,32.2-7.5,47.1c-8,16.9-16.6,33.5-24.4,50.4
		c-14.4,31.3-21.6,63.7-13.2,98.1c0.5,2.1,0.2,4.5-0.1,6.6c-0.6,3.8-1.4,7.5-2.3,11.2c-2.1,8.6-0.2,16.5,5.3,23.1
		c6.1,7.4,12.8,14.3,19.4,21.4c1.3,1.4,3,2.6,5.2,4.5c0.5-14.4,1.2-27.5,1.4-40.6c0.1-5-1.8-9.6-5.3-13.5
		c-3.8-4.2-7.4-8.5-10.8-13.1c-1.2-1.6-1.9-3.8-2.1-5.8c-1.9-26.3,5.2-50.8,16.5-74.1c11.3-23.3,23.6-46.1,35.4-69.2
		c5.3-10.5,8.8-21.4,8.2-33.4c-0.5-9-0.7-18.1-0.9-27.1c-0.5-18.3,1.7-35.9,12.7-51.4c1.3-1.9,2.6-3.8,3.5-5.2
		c-8.7-3.7-17.1-7.3-25.8-11C80.2,304.8,76.2,317.6,73.1,330.7z M48.2,610.8c0.5,0.3,0.9,0.6,1.2,0.9c0.6,0.5,0.9,0.9,0.9,0.9
		s-0.4-0.2-1.1-0.6c-0.7-0.3-1.8-0.8-3-1.2c-0.6-0.2-1.3-0.3-2-0.3c-0.3,0-0.6,0.1-0.9,0.2c-0.2,0.1-0.4,0.3-0.5,0.5
		c-0.3,0.5-0.3,1.3-0.3,2.1c0,0.8,0.2,1.7,0.4,2.6l0.2,0.6c0,0.2,0.1,0.4,0.2,0.6c0.1,0.4,0.3,0.8,0.4,1.2c0.3,0.7,0.7,1.4,1.2,1.8
		c0.5,0.4,1,0.5,1.7,0.4c0.6-0.1,1.2-0.4,1.8-0.8c1.1-0.7,1.8-1.6,2.3-2.2c0.5-0.6,0.6-1.1,0.6-1.1s0,0.5-0.3,1.3
		c-0.3,0.8-0.9,1.9-2,2.9c-0.5,0.5-1.2,1-2.1,1.3c-0.5,0.1-1,0.2-1.5,0.1c-0.5-0.1-1.1-0.3-1.5-0.6c-0.9-0.7-1.5-1.6-1.9-2.5
		c-0.2-0.5-0.4-0.9-0.5-1.4c-0.1-0.2-0.1-0.5-0.2-0.7c-0.1-0.2-0.1-0.4-0.2-0.7c-0.2-0.9-0.3-1.9-0.4-2.9c0-1,0.1-2,0.7-3
		c0.3-0.5,0.8-0.9,1.3-1.1c0.5-0.2,1.1-0.2,1.5-0.2c0.9,0.1,1.7,0.4,2.3,0.7C47.2,610.1,47.7,610.5,48.2,610.8z M40,588.2
		c0.8,0.5,1.5,1.1,2.1,1.6c0.6,0.5,1.1,1,1.4,1.4c0.8,0.8,1.1,1.3,1.1,1.3s-0.5-0.4-1.4-0.9c-0.9-0.6-2.2-1.4-3.9-2.1
		c-0.8-0.4-1.7-0.7-2.6-0.8c-0.4,0-0.9,0-1.2,0.1c-0.3,0.1-0.6,0.3-0.8,0.7c-0.4,0.6-0.7,1.7-0.7,2.8c-0.1,1.1,0,2.3,0.1,3.5
		l0.1,0.9c0,0.3,0.1,0.6,0.1,0.9c0.1,0.6,0.2,1.1,0.4,1.7c0.3,1.1,0.7,2,1.3,2.7c0.6,0.6,1.3,0.9,2.2,0.9c0.9-0.1,1.7-0.4,2.5-0.8
		c1.5-0.8,2.7-1.8,3.5-2.6c0.7-0.8,1-1.3,1-1.3s-0.1,0.6-0.6,1.6c-0.5,1-1.5,2.3-3.1,3.5c-0.8,0.6-1.8,1.2-3.1,1.4
		c-0.6,0.1-1.3,0.1-2.1-0.1c-0.7-0.2-1.4-0.6-1.9-1.1c-1.1-1-1.7-2.3-2.1-3.6c-0.2-0.6-0.4-1.3-0.5-1.9c-0.1-0.3-0.1-0.7-0.2-1
		c0-0.3-0.1-0.6-0.1-1c-0.1-1.3-0.1-2.6,0-3.9c0.2-1.3,0.4-2.7,1.4-4c0.5-0.6,1.2-1.1,2-1.3c0.8-0.2,1.5-0.1,2.1,0
		C38.2,587.1,39.2,587.6,40,588.2z"/>
	<path class="st2" d="M322.7,138.2c-1.5-9.3-5.3-17.5-9.9-25.6c-2.3-4.1-4.6-8.2-7-12.1c0,0,0-0.1,0-0.1c-1.1-5-5.2-9-8.8-12.5
		c-4.4-4.3-8.5-8.8-12.7-13.3c-9.2-9.8-19.3-20.9-31.5-26.9c-0.4-0.2-0.9-0.3-1.3-0.4c-0.6-0.5-1.3-0.9-2-1.3
		c-0.2-0.2-0.7-0.5-1.1-0.8c-0.2-0.4-0.4-0.7-0.8-1.1c-0.8-0.8-1.9-1.2-3-1.2c-0.5,0-1,0.1-1.5,0.3c-2.6-1.9-5.3-3.8-7.9-5.7
		c0.5,1.1,0.7,1.7,1,2.2c1.4,1.9,2.9,3.9,4.3,5.8c-0.2,0.5-0.4,1.1-0.3,1.7c0.2,1.5,0.5,2.6,1.6,3.7c0.6,0.6,1.3,1.1,2,1.6
		c0.3,0.2,1,0.7-0.2-0.2c0.5,0.4,1,0.8,1.6,1.2c0.3,0.2,0.5,0.3,0.8,0.5c0,0,0,0,0,0c0,0.4,0.1,0.7,0.2,1.1c0.6,2.9,2.5,5.5,4.5,7.8
		c1.9,2.3,3.9,4.5,5.9,6.8c3,6.4,7.5,11.8,11.1,17.9c2.9,4.9,4.5,10.5,7.1,15.6c0.7,5.1,3.1,9.8,5.3,14.4c3.3,6.9,7.1,14.1,8.6,21.6
		c0.2,1.1,0.8,1.9,1.5,2.4c0,0.2,0,0.4,0,0.6c0.1,4.9-0.1,10.5,1.1,15.3c0.4,1.8,1.6,3.1,3,3.8c0.6,3.4,1.6,6.6,3.7,9.2
		c-0.1,4.2,0,8.5,0.1,12.8c0.1,4.2,0.1,8.5,0.1,12.7c0,2.7-0.3,5.6-0.1,8.3c-0.3,1.4-0.6,2.7-1,4c-0.1,0.3-0.2,0.6-0.3,1
		c-0.3,1-0.6,2.1-1,3.1c-0.9,2.5,0.6,4.3,2.5,4.9c0,0.3,0,0.6,0,0.9c0.2-0.2,0.4-0.5,0.6-0.7c1.7,0.3,3.5-0.2,4.6-1.7
		c0.6-0.3,1.2-0.9,1.6-1.8c1.2-2.6,2.2-5.2,3.2-8c3.4-5,5.8-10.5,8.2-16.1c2.2-5.2,4.5-11.6,5-17.7c1.1-2,1.6-4,1.6-6
		c0.3-0.6,0.5-1.2,0.5-2C323.8,155.3,324.1,146.7,322.7,138.2z"/>
	<path class="st2" d="M212.9,481.2c0-1.2-0.5-2.1-1.1-2.7c0-0.4,0-0.7-0.1-1.1c0.2-0.5,0.3-1.1,0.3-1.7c0-6.5-1.9-13-2.4-19.5
		c-0.7-7.6-0.8-15.2-1-22.8c-0.3-9.6,1.9-21.3-2.9-30.1c0.7-5.8,1.4-11.6,2.2-17.4c0.6-4.3,1.2-8.7,1.6-13c0.2-1.8,0-4,0.2-6
		c0.2-0.8,0.3-1.7,0.5-2.5c0.1-0.6,0.2-1.2,0.3-1.8c0-0.1,0.1-0.2,0.1-0.3c0.2-0.3,0.2-0.7,0.1-1c0.2-1.3,0.4-2.6,0.7-3.9
		c-0.5,0-0.9,0-1.4,0c0.1-2.2-1.3-4.5-4.1-4.5c-12.3-0.2-24.2-3.8-36.4-5.2c-0.9-0.2-1.8-0.3-2.7-0.4c-0.2,0-0.4,0-0.5,0.1
		c-1.6-0.1-3.2-0.2-4.8-0.2c-0.2,0-0.3,0-0.5,0c-0.1,0-0.2-0.1-0.4-0.1c-0.3-0.4-0.6-0.7-1-1c-6-4.3-13.3-7.9-20.7-9.3
		c-4.6-2.6-8.8-5.1-12.3-7.4c-1.2-4.3-8.4-3.9-8.3,1.2c0,1.6,0.1,3.2,0.2,4.7c-3,18.7-5.4,37.6-6.5,56.4c-0.3,5.7-0.6,11.5-1.3,17.3
		c-0.9,0.7-1.5,1.8-1.6,3.2c0,2.5-0.3,5-0.7,7.5c-0.9,3.3-1.6,6.5-2.1,9.8c-0.7,2.7-1.5,5.3-2.2,8c-2.4,8.9-4.6,17.8-8.6,26.1
		c-3.8,7.7-8.5,15-13.8,21.7c-2.4,3.1-4.7,6.1-6.4,9.4c-4.1,4.4-4.6,11-3.4,16.7c1.2,6.3,7.8,9.7,13.5,11c6.4,1.4,12.4-0.4,16.9-5.1
		c3-3.1,5.7-6.8,8.3-10.3c0.5-0.7,1-1.5,1.5-2.2c2.4-2.7,4.5-5.7,6-9.4c0.3-0.6,0.3-1.3,0.2-1.8c3.4-5.8,6.2-12,8.8-18
		c3.3-7.7,5.1-15.4,6.6-23.6c1-5.4,2.4-10.5,2.9-15.8c0.5-0.6,0.8-1.5,0.8-2.5c0.1-7.1,0.9-14,2.3-20.9c0.6,0,1.2,0.1,1.8,0.4
		c0.2,12.3,0.5,24.6,0.6,36.9c-0.1,0.5-0.3,1-0.4,1.5c-1.9,8.9-4.3,17.6-5.9,26.5c-0.8,4.6-1.9,9.2-3.8,13.4
		c-1.8,3.7-3.8,7.3-4.4,11.4c-0.1,0.6-0.1,1.2,0,1.9c0,0,0,0,0,0.1c-0.8,2-2.3,3.7-3.5,5.4c-1.4,2-2.6,4.1-3.3,6.5
		c-0.1,0.5-0.2,1-0.2,1.4c-2.8,4.7-5,9.6-4.7,15.1c0.6,9.7,10.4,17.3,19.9,16.2c9.2-1,15.4-9.3,19.7-16.7
		c5.2-8.9,9.2-18.6,10.3-28.8c1.7-3.3,2.1-7.9,2.9-11.3c2.4-10.1,2.7-20.4,3.2-30.7c0.3-8.1,0.6-16.1-0.1-24.1
		c0.1-0.3,0.1-0.6,0.1-1c0-1.6,0-3.3-0.2-4.9c0,0,0,0,0-0.1c1-0.7,1.6-1.8,1.5-3.3c-0.7-11.9-1.1-23.8-1.2-35.7
		c0.5-0.2,1.1-0.2,1.6-0.2c0.6,4.5,1.6,8.9,1.9,13.4c0.4,5.3,1.3,10.6,1.9,15.9c-0.1,0.4-0.2,0.9-0.2,1.4c0.1,8.8,1.9,17.3,2.6,26
		c0.3,3.4,0.4,6.8,0.6,10.1c-0.3,0.5-0.4,1.2-0.4,1.9c0,11.9-0.5,23.9-2.1,35.7c-0.4,2.7-0.8,5.5-1.2,8.3c-1.1,4.1-2.4,8.1-3.8,12
		c-2.2,6-5.5,11.3-8.5,16.9c-5,9.4-8.4,23.3,3.2,29.4c0.3,0.2,0.7,0.3,1.1,0.5c3.6,4.3,9.7,5.8,15,3.5c1.6-0.7,2.7-1.6,3.7-2.7
		c3.1-1.7,5.6-4.5,7.8-7.4c3.4-4.5,5.4-10.2,7.3-15.6c2.9-7.2,5.3-14.5,6.7-22.2c0.7-4.1,1.1-8.2,1.3-12.3c0.5-2,0.9-4,1-6.2
		c0-0.5,0-1.1,0-1.6C213.4,493.8,213.1,487.1,212.9,481.2z"/>
</g>
<g id="skin_shading_1_">
	<path class="st3" d="M183.7,196.1c-0.1-1.6-2.7-1.6-2.5,0c0,0.6,0.1,1.2,0.2,1.8c0,0.1-0.1,0.3-0.1,0.4c0,1.4-0.2,2.8-0.4,4.2
		c-0.8-0.4-2-0.1-1.9,1c0.1,1,0.2,2,0.2,3c-0.7-0.2-1.7,0.2-1.8,1.2c-0.2,4.1-2.4,6.7-5.4,8.2c0,0-0.1,0-0.1,0
		c-0.3,0-0.6,0.2-0.8,0.4c-0.6,0.2-1.2,0.4-1.8,0.6c-2.7,0.1-5.6-0.5-8.2-1.5c-0.7-0.3-1.3,0.2-1.5,0.7c-4.2-1.6-7.7-4.8-8.2-9.3
		c-0.2-1.6-2.7-1.6-2.5,0c1.1,9.4,11.6,14.1,20.1,12.6c3.4,0,6.7-1,9.5-3.6C184.7,210.2,184.3,204,183.7,196.1z"/>
	<path class="st3" d="M263.6,206.9c-0.5,4.5-4,7.7-8.2,9.3c-0.2-0.6-0.7-1-1.5-0.7c-1.8,0.6-3.7,1.1-5.6,1.3c-0.1-0.4-0.3-0.8-0.8-1
		c-1.7-0.6-3.6-0.7-5.3-1.5c-0.6-0.3-1.1-0.1-1.5,0.2c-1.8-1.6-3-3.8-3.2-6.7c-0.1-1-1-1.4-1.8-1.2c0-1,0.1-2,0.2-3
		c0.1-1.1-1.1-1.5-1.9-1c-0.2-1.4-0.3-2.8-0.4-4.2c0-0.2,0-0.3-0.1-0.4c0.1-0.6,0.1-1.2,0.2-1.8c0.1-1.6-2.4-1.6-2.5,0
		c-0.6,7.9-1,14.1,5.3,19.9c2.8,2.6,6.1,3.5,9.5,3.6c8.5,1.4,19-3.3,20.1-12.6C266.3,205.3,263.8,205.3,263.6,206.9z"/>
	<path class="st3" d="M214.2,228.7c0,0-0.1,0.1-0.1,0.1c-0.1,0-0.3,0.1-0.4,0.2c-1.8,1.1-3.5,2.2-5.6,2.4c-1.9,0.2-3.6-1.1-5.3-1.8
		c-0.3-0.1-0.6-0.1-0.8-0.1c-0.1-0.1-0.3-0.3-0.4-0.4c-0.9-1.3-3.1-0.1-2.2,1.3c1.6,2.4,5.1,3.2,7.7,3.7c3.2,0.6,6.8-1,8.8-3.6
		C217,229.2,215.2,227.4,214.2,228.7z"/>
	<path class="st3" d="M110.9,303.1c-7-4-14.7-6.9-22.6-8.9c-1.6-0.4-2.9,0-3.8,0.9c-3.2,0.9-3.9,6.7,0.2,8.4c7.3,3,13.4,8.3,21,10.8
		c3.1,1,5.1-1.4,5.2-3.9C113.2,308.8,114.1,304.9,110.9,303.1z"/>
	<path class="st3" d="M334.5,279.8c-0.4-0.8-0.9-1.6-1.2-2.4c-0.3-0.8-1.4-1.4-2.1-0.6c-1.6,1.9-3.6,3.5-4.7,5.8
		c-0.2,0.4-0.2,0.9,0,1.2c-4.8,4.1-9.3,8.7-13.1,13.8c-1.7,2.3-0.6,4.8,1.3,6c0,0,0,0,0,0.1c0.5,1,0.9,2.2,1.6,3.1
		c1.4,1.6,3.3,0.6,4.9-0.1c0.1-0.1,0.2-0.1,0.3-0.2c0.4-0.2,0.8-0.4,1.1-0.7c6-5.3,9.4-12.6,15-18.2
		C340.8,284.4,337.8,279.4,334.5,279.8z"/>
	<path class="st3" d="M222.8,255.6c-7.9,0.5-15.6,3.5-23.5,1.9c-1.6-0.3-2.3,2.1-0.7,2.4c0.2,0,0.4,0.1,0.6,0.1
		c1,4.8,4.8,8.4,8.6,11.7c0,0.4,0,0.8,0,1.2c0,0.9,0.7,1.3,1.4,1.2c0,0.2-0.1,0.4-0.1,0.6c-0.1,0.7,0.4,1.1,0.9,1.2
		c0.1,0.3,0.2,0.6,0.2,0.9c0.3,1.1,1.8,1.2,2.3,0.3c2-3.1,3.7-6.2,5.2-9.5c0.2-0.2,0.3-0.4,0.3-0.7c1.6-3.3,4.2-6,5.8-9.4
		C224.3,256.7,223.9,255.5,222.8,255.6z"/>
	<path class="st3" d="M207.9,355.2c-3.5-2.3-8-1.2-11.9-2.1c-5.7-1.3-11.4-2.2-17.1-3.5c-10.9-2.4-21.1-6.4-31.6-9.9
		c-0.3-0.6-0.8-1.1-1.6-1.5c-4.2-2.4-8.6-4.4-13.1-6c-0.4-0.6-0.9-1.2-1.5-1.6c-1.8-1.4-3.6-2.8-5.5-4c-1.9-1.3-4.7-0.4-5.8,1.5
		c-0.4,0.7-0.6,1.5-0.6,2.2c-3.1,1-3.8,6.7,0.3,8.4c6.3,2.6,11.7,6.9,18,9.6c-0.1,5.1,0.5,10.1,0.4,15.2c-0.1,5.1-0.5,10.2,0.8,15.2
		c0.7,2.6,4.8,1.5,4.1-1.1c-1.2-4.5-0.8-9.1-0.7-13.7c0.4-0.3,0.7-0.9,0.7-1.6c0-3.8,0.3-7.5,0.7-11.2c8.5,4.1,17.2,8.1,26.3,10.9
		c-0.2,7.3-0.6,14.7,1.3,21.9c0.7,2.6,4.8,1.5,4.1-1.1c-1.7-6.4-1.4-13-1.2-19.6c3.9,1,7.8,1.5,11.8,1.8c1.8,0.7,3.7,0.9,5.7,1.2
		c4.1,0.5,8.1,1.4,12.2,1.9c3.3,0.5,5.5-2.5,5.3-5c0.1-0.5,0.1-1.1,0-1.7C210.2,359.4,210.2,356.8,207.9,355.2z"/>
	<path class="st3" d="M310,330.3c0-0.7-0.1-1.3-0.5-2c0.1-2.2-1.3-4.5-4.1-4.5c-2.8,0-4.1,2.2-4.1,4.3c-1.1,0.8-2.2,1.6-3.3,2.4
		c-0.6,0.5-1.1,1-1.5,1.6c-4.5,1.6-8.9,3.6-13.1,6c-0.7,0.4-1.2,1-1.6,1.5c-10.5,3.5-20.7,7.5-31.6,9.9c-5.7,1.3-11.4,2.1-17.1,3.5
		c-3.9,0.9-8.5-0.2-11.9,2.1c-2.3,1.5-2.3,4.2-1.2,6c-0.1,0.6-0.1,1.1,0,1.7c-0.1,2.5,2,5.4,5.3,5c4.1-0.6,8.1-1.4,12.2-1.9
		c1.9-0.2,3.9-0.5,5.7-1.2c4.1-0.3,8.2-0.8,12.2-1.9c-0.4,3.4-0.7,6.7-1.2,10.1c-0.1,0.7,0.3,1.2,0.7,1.4c0.5,0.9,2.3,0.7,2.4-0.6
		c0.1-2.2,1.1-4.1,1.4-6.3c0.2-1.9,0.2-3.8,0.4-5.7c9.6-2.9,18.8-7.2,27.7-11.6c0.3,6.3,1,12.6,0.3,19c-0.1,0.8,0.5,1.2,1.1,1.2
		c-0.4,2.8-0.8,5.5-1.3,8.2c-0.3,1.6,2.2,2.3,2.4,0.7c0.9-5.4,1.8-11,2.2-16.5c0.3-4.7-0.7-9.7-0.3-14.5c6.4-2.7,11.8-7.1,18.3-9.8
		C313.8,337,313.1,331.3,310,330.3z"/>
	<path class="st3" d="M294.2,226c-1.5,3.1-5.1,4.3-8.1,5.6c-4.3,2-9.4,3.2-13.9,4.8c-3.8,1.4-7.7,2.4-11.6,3.5
		c-1,0.3-1.9,0.6-2.9,0.9c-2.4,0.5-4.8,1-7.1,1.5c-0.7,0-1.4,0-2.1,0c0,0-0.1,0-0.1,0c-0.9,0.4-1.8,0.7-2.7,0.8
		c0,0.1-0.1,0.1-0.1,0.2c0,0-0.1,0-0.1,0c-3.4,0.8-6.8,1.5-10.2,2.3c-0.1,0-0.2,0-0.3,0c-8.8,1.3-18.2,3.5-28.9,4.1
		c-10.1,0.6-20.3,0.4-30.3-0.9c-0.3,0-0.6,0-0.8,0.2c-5.6-0.6-11.2-1.4-16.9-2.3c-1.4-0.2-2.8-0.5-4.3-0.7c-4-1.1-7.9-2.7-11.9-3.7
		c-0.1,0-0.2,0-0.3,0c-4.8-1.4-9-4.5-12.9-7.6c-1.3-1-3.1,0.8-1.8,1.8c0.3,0.2,0.6,0.5,0.9,0.7c-0.5,0.4-0.7,1.2-0.2,1.9
		c6.8,8,16.2,9.8,26.1,11.5c9,1.6,17.9,2.2,26.9,2.4c0.2,0.4,0.5,0.6,1.1,0.6c7.5,0,15-0.4,22.4-0.8c7.3-0.4,14.8,0.1,22.1-0.6
		c6.8-0.7,13.7-2.8,20.3-4.3c3.5-0.8,7.1-1.5,10.6-2.4c3.1-0.8,6.7-2.5,9.8-2.7c0.9-0.1,1.3-0.9,1.2-1.6c2.9-0.7,5.8-1.6,8.7-2.6
		c0.2,0.1,0.4,0.2,0.8,0.2c5.9-0.4,11.5-2.8,15.9-6.6c1-0.7,2-1.4,2.8-2.4c0.5-0.6,0.3-1.3-0.1-1.8c0.1-0.2,0.3-0.4,0.4-0.7
		C297.1,225.9,294.9,224.6,294.2,226z"/>
	<polygon class="st3" points="184,46.2 173.3,64.2 152.4,98.4 139.3,127.6 129.2,162.2 126.1,186.8 124.9,219.8 119.3,213.7 
		111.6,195.5 105.9,181.2 102.6,166.3 100.7,139.3 102.4,128.9 106.6,115.1 117.2,98.8 128.7,86.8 162,60.6 177.8,49.1 	"/>
	<polygon class="st3" points="296.5,222.6 309.9,205.1 318.8,183.3 323.8,156.1 321.9,138.8 315,115.3 306.6,100.4 292.2,83.7 
		278.7,69.8 261.5,54.6 235.4,35.6 241.3,48.1 246.5,55.6 251.6,62.4 256.7,70.6 265.4,82.1 269.6,89.6 273.7,98 279.6,110.7 
		283.9,123.3 288,135.8 291.4,148.6 293.9,159.9 296.1,173.9 	"/>
</g>
<g id="shirt_2_">
	<g id="letters_2_">
		<path class="st4" d="M143.3,297.3c-0.5-0.4-1-0.8-1.4-1c-0.4-0.3-0.8-0.5-1.2-0.7c-0.3-0.2-0.6-0.4-0.8-0.5
			c-0.8-0.5-1.2-1-1.1-1.5c0.1-0.8,0.8-1.1,2-1c1.2,0.2,2.5,0.7,4,1.7c0.2-0.1,0.7-0.7,1.4-1.9c0.7-1.2,1.1-2.1,1.2-2.9
			c0-0.1,0-0.1,0-0.2c0-0.6-0.7-1.1-2.1-1.7c-1.4-0.6-3-0.9-4.7-1.2c-2.5-0.4-4.7,0-6.4,1.2c-1.8,1.1-2.8,2.7-3.2,4.7
			c-0.3,2-0.1,3.7,0.7,5.2c0.3,0.5,0.7,1.1,1.3,1.6c0.6,0.5,1,0.9,1.4,1.2c0.4,0.3,0.9,0.6,1.6,1.1c0.7,0.5,1.2,0.8,1.5,1.1
			c0.3,0.3,0.4,0.6,0.3,1c-0.1,0.8-0.7,1.1-1.7,0.9c-1-0.2-2.1-0.6-3.1-1.4c-1-0.8-1.8-1.4-2.2-1.8c-0.5,0.2-1,0.8-1.5,1.6
			c-0.5,0.9-0.9,1.8-1,2.7c-0.2,0.9,0.2,1.8,0.9,2.6c0.8,0.8,1.8,1.4,2.9,1.8c1.2,0.4,2.5,0.7,4,1c3.1,0.4,5.5-0.1,7.1-1.5
			c1.7-1.4,2.7-3.3,3-5.7c0.2-1.9-0.2-3.5-1.4-4.8C144.3,298.3,143.8,297.8,143.3,297.3z"/>
		<path class="st4" d="M159.4,295.7c-0.7-0.1-1.7,0-3.1,0.3c0.3-2.3,0.5-4.6,0.8-6.9c0-0.4-0.9-0.7-2.9-1c-0.5-0.1-1.1-0.1-1.9-0.1
			c-0.7,0-1.1,0-1.2,0.2c-1,7.9-1.9,15.7-2.9,23.6c0,0.3,1,0.6,3.1,0.9c2.1,0.2,3.1,0.3,3.2,0c0.4-3.7,0.8-7.5,1.2-11.2
			c0.8-0.4,1.4-0.6,2-0.5c0.8,0.1,1.1,0.7,1,1.8c-0.4,3.4-0.7,6.8-1.1,10.2c0,0.2,1.1,0.4,3.3,0.7c2,0.2,2.9,0.2,3,0
			c0.3-3.6,0.7-7.1,1-10.7c0.2-2.5-0.1-4.3-1.1-5.4C162.6,296.5,161.2,295.9,159.4,295.7z"/>
		<path class="st4" d="M168.4,297c-0.5,5.7-1,11.3-1.5,17c0,0.2,1.1,0.3,3.4,0.5c2.3,0.2,3.4,0.2,3.5,0c0.4-5.7,0.8-11.3,1.3-17
			c0-0.1-1.1-0.3-3.3-0.5C169.5,296.9,168.4,296.8,168.4,297z"/>
		<path class="st4" d="M188.3,297.9c-0.9,0-1.8,0.2-2.7,0.7c-0.9,0.5-1.6,1.2-2.2,2.2c0-0.8-0.3-1.6-1-2.2c-0.7-0.7-1.6-1.1-2.7-1.1
			c-1.6-0.1-2.4,1.1-2.6,3.6c0,0.7,0,1.2,0.2,1.7c0.2,0.5,0.5,0.7,0.9,0.7c0.3,0,0.7,0,1,0.1c-0.3,3.8-0.5,7.7-0.8,11.5
			c0,0.1,1.1,0.3,3.4,0.5c2.3,0.1,3.4,0.1,3.4-0.1c0.2-3.2,0.3-6.5,0.5-9.7c0.1-1.4,0.6-2.1,1.5-2c0.3,0,0.7,0.1,1.1,0.3
			c0.4,0.2,0.6,0.3,0.7,0.3c0,0,0.2-0.2,0.5-0.6c0.3-0.4,0.5-1.1,0.8-2c0.3-0.9,0.4-1.6,0.4-1.9c0-0.4,0-0.6-0.1-0.8
			C190.5,298.3,189.7,297.9,188.3,297.9z"/>
		<path class="st4" d="M203.7,298.7c-1,0-2.1,0-3.1-0.1c0-0.3,0-0.6,0-1c0-0.7,0-1.5,0.1-2.2c0-0.4-1-0.6-3-0.6
			c-2-0.1-3.1,0.1-3.1,0.6c0,1-0.1,2-0.1,3.1c-0.6,0-1.3,0-1.9-0.1c-0.3,0-0.5,0.3-0.6,0.9c-0.1,0.6-0.2,1.1-0.2,1.5
			c-0.1,1.6,0.1,2.4,0.6,2.4c0.6,0,1.3,0,1.9,0.1c-0.1,4.1-0.3,8.2-0.4,12.3c0,0.2,1.2,0.4,3.8,0.6c2.1,0.1,3.2-0.1,3.2-0.3
			c0.1-4.1,0.2-8.2,0.3-12.3c0.9,0,1.7,0,2.6,0.1c0.4,0,0.6-0.8,0.7-2.4C204.3,299.5,204.1,298.7,203.7,298.7z"/>
		<path class="st4" d="M223,302c-0.6-0.3-1.1-0.6-1.6-0.8c-0.5-0.2-0.9-0.4-1.3-0.6c-0.4-0.2-0.7-0.3-0.8-0.4
			c-0.9-0.4-1.4-0.8-1.4-1.3c0-0.8,0.6-1.3,1.8-1.3c1.2,0,2.6,0.3,4.2,1.1c0.2-0.1,0.6-0.8,1.1-2.1c0.5-1.3,0.7-2.3,0.7-3.1
			c0-0.1,0-0.1,0-0.2c-0.1-0.6-0.8-1-2.3-1.4c-1.5-0.3-3.1-0.5-4.8-0.5c-2.5,0-4.6,0.7-6.2,2.1c-1.6,1.4-2.4,3.1-2.4,5.1
			c0,2,0.5,3.7,1.4,5c0.3,0.5,0.8,1,1.5,1.4c0.7,0.5,1.2,0.8,1.6,1c0.4,0.2,1,0.5,1.8,0.8c0.8,0.3,1.3,0.6,1.6,0.9
			c0.3,0.3,0.5,0.6,0.5,0.9c0,0.8-0.5,1.2-1.6,1.2c-1.1,0-2.2-0.3-3.3-0.9c-1.2-0.6-2-1.1-2.4-1.4c-0.4,0.3-0.8,0.9-1.2,1.9
			c-0.4,0.9-0.6,1.9-0.6,2.8c0,0.9,0.4,1.8,1.3,2.4c0.9,0.7,2,1.1,3.2,1.4c1.2,0.2,2.6,0.3,4.1,0.3c3.1-0.1,5.4-0.9,6.8-2.5
			c1.4-1.6,2.1-3.7,2.1-6.1c-0.1-1.9-0.7-3.4-2.1-4.5C224.2,302.7,223.6,302.3,223,302z"/>
		<path class="st4" d="M231.2,300.5c-1.6,1.6-2.3,3.8-2.2,6.5c0.1,2.8,0.8,4.9,2.2,6.5s3.3,2.3,5.6,2.2c0.7,0,1.6-0.2,2.5-0.4
			c0.1,2.1,0.2,4.3,0.3,6.4c0,0.3,1.1,0.4,3.3,0.3c2.2-0.1,3.3-0.3,3.2-0.6c-0.5-7.4-0.9-14.7-1.4-22.1c-2-1.1-4.3-1.6-7.1-1.4
			C235,298,232.8,298.9,231.2,300.5z M239.1,310c-0.4,0.1-0.7,0.2-1.1,0.2c-0.4,0-0.8-0.1-1.2-0.3c-0.7-0.4-1.1-1.3-1.1-2.9
			c-0.1-1.5,0.2-2.6,0.7-3c0.4-0.3,0.8-0.5,1.2-0.5c0.4,0,0.8,0,1.2,0.1C238.9,305.7,239,307.9,239.1,310z"/>
		<path class="st4" d="M265.6,307.8c-0.3,0-0.6,0.1-1,0.1c-0.4-3.8-0.7-7.6-1.1-11.3c0-0.2-1.1-0.2-3.1,0c-2.1,0.2-3.1,0.4-3.1,0.6
			c0.3,3.7,0.6,7.4,1,11.1c-0.7,0.5-1.4,0.8-1.9,0.9c-0.8,0.1-1.2-0.5-1.3-1.6c-0.3-3.4-0.5-6.7-0.8-10.1c0-0.3-1.1-0.3-3.2-0.1
			c-2.1,0.2-3.1,0.3-3.1,0.6c0.2,3.4,0.5,6.8,0.7,10.2c0.2,2.6,0.9,4.4,2.1,5.4c1.2,1,3.1,1.5,5.5,1.3c1.8-0.1,3.3-0.9,4.8-2.3
			c0,0,0,0,0,0c0.9,1.2,2.2,1.7,3.9,1.5c0.9-0.1,1.5-0.7,1.9-1.7c0.3-0.8,0.4-1.6,0.3-2.4C266.9,308.4,266.4,307.7,265.6,307.8z"/>
		<path class="st4" d="M296.4,303.6c-0.4,0.1-0.9,0.1-1.3,0.2c-1-6-1.9-12.1-2.9-18.1c0-0.1-0.5-0.2-1.3-0.1
			c-0.9,0.1-1.6,0.1-2.2,0.2c-1.9,0.3-2.8,0.6-2.7,0.9c0.3,2.2,0.6,4.4,1,6.5c-0.7,0-1.4,0-2,0.1c-2.2,0.3-4,1.3-5.3,3.1
			c-1.3,1.7-1.8,4-1.4,6.9c0.4,2.8,1.4,5,3,6.4c1.7,1.4,3.6,1.9,5.6,1.7c2.1-0.3,3.7-1.2,4.9-2.6c0.1,0.1,0.3,0.3,0.4,0.4
			c0.3,0.3,0.7,0.5,1.4,0.7c0.7,0.2,1.4,0.2,2.3,0.1c1.1-0.2,1.8-0.8,2.1-1.9c0.2-0.8,0.3-1.4,0.2-2c-0.1-0.5-0.2-0.9-0.3-1.2
			C297.5,304,297,303.5,296.4,303.6z M288.6,304.8c-0.4,0.5-0.8,0.7-1.3,0.8c-0.5,0.1-1-0.1-1.4-0.6c-0.5-0.5-0.8-1.3-0.9-2.4
			c-0.3-2.3,0.2-3.6,1.6-3.8c0.4-0.1,0.8,0,1.3,0.2C288,300.9,288.3,302.9,288.6,304.8z"/>
		<path class="st4" d="M267.9,296c0.6,5.7,1.2,11.3,1.8,17c0,0.2,1.2,0.1,3.5-0.1c2.3-0.3,3.4-0.5,3.4-0.7c-0.7-5.6-1.4-11.3-2-16.9
			c0-0.1-1.1-0.1-3.3,0.2C268.9,295.7,267.8,295.8,267.9,296z"/>
		<path class="st4" d="M271.6,280.4c-0.7-1.4-1.6-2.6-2.5-2.4c-0.9,0.1-1.5,1.4-1.9,2.9c0,0,0,0,0,0c-0.5,1.4-1,2.8-1.5,4.2
			c0.4,1,0.8,2,1.2,3c0,0,0.2,2.3,0.2,2.3c0,0.1,1.2,0.8,3.4,0.6c2.2-0.3,3.2-1.2,3.2-1.4c-0.1-0.7-0.2-1.5-0.3-2.2
			c0.2-1.1,0.4-2.2,0.6-3.3C273.3,282.8,272.5,281.6,271.6,280.4C271.6,280.4,271.6,280.4,271.6,280.4z M268.4,287.9
			c-0.3,0-0.6-0.2-0.6-0.5c0-0.3,0.2-0.6,0.5-0.6c0.3,0,0.6,0.2,0.6,0.5C269,287.6,268.8,287.9,268.4,287.9z M272.7,286.9
			c0,0.3-0.2,0.6-0.5,0.6c-0.3,0-0.6-0.2-0.6-0.5c0-0.3,0.2-0.6,0.5-0.6C272.3,286.4,272.6,286.6,272.7,286.9z"/>
		<path class="st4" d="M175.1,282.4c-0.4-1.5-1-2.8-2-2.9c-0.9-0.1-1.7,1.1-2.4,2.5c0,0,0,0,0,0c-0.8,1.3-1.5,2.5-2.3,3.8
			c0.2,1.1,0.4,2.1,0.6,3.2c0,0-0.2,2.3-0.2,2.3c0,0.1,1,1,3.2,1.2c2.2,0.2,3.4-0.6,3.4-0.7c0.1-0.7,0.1-1.5,0.2-2.2
			c0.4-1,0.8-2.1,1.2-3.1C176.2,285.1,175.6,283.7,175.1,282.4C175.1,282.4,175.1,282.4,175.1,282.4z M170.5,289.2
			c-0.3,0-0.5-0.3-0.5-0.6c0-0.3,0.3-0.5,0.6-0.5c0.3,0,0.5,0.3,0.5,0.6C171,289,170.8,289.2,170.5,289.2z M174.8,289
			c0,0.3-0.3,0.5-0.6,0.5c-0.3,0-0.6-0.3-0.5-0.6c0-0.3,0.3-0.5,0.6-0.5C174.6,288.4,174.8,288.6,174.8,289z"/>
	</g>
</g>
<g id="lines_2_">
	<path class="st5" d="M196.7,227.1c0,0,0.1,0,0.3,0.1c0.2,0.1,0.4,0.1,0.8,0.2c0.3,0.1,0.7,0.2,1.2,0.3c0.4,0.1,0.9,0.2,1.5,0.4
		c0.5,0.1,1.1,0.2,1.7,0.4c0.6,0.1,1.2,0.2,1.9,0.3c0.3,0,0.7,0.1,1,0.1c0.3,0,0.7,0,1,0.1l0.5,0c0.2,0,0.3,0,0.5,0l1,0
		c0.7,0,1.4-0.1,2.1-0.1c0.7-0.1,1.4-0.2,2-0.2c0.6-0.1,1.3-0.2,1.9-0.3c0.6-0.1,1.2-0.3,1.7-0.4c0.5-0.1,1.1-0.2,1.5-0.3
		c0.4-0.1,0.8-0.2,1.2-0.3c0.7-0.1,1.1-0.2,1.1-0.2s-0.3,0.3-0.8,0.8c-0.3,0.2-0.6,0.5-0.9,0.8c-0.4,0.3-0.8,0.6-1.3,1
		c-0.5,0.3-1.1,0.7-1.7,1c-0.6,0.3-1.3,0.6-2,0.8c-0.7,0.2-1.5,0.4-2.3,0.6c-0.8,0.1-1.6,0.2-2.4,0.2c-0.8,0-1.6,0-2.4-0.1
		c-0.8-0.1-1.6-0.3-2.3-0.5c-0.7-0.2-1.4-0.5-2.1-0.8c-0.6-0.3-1.2-0.6-1.7-1c-0.5-0.3-0.9-0.7-1.3-1c-0.4-0.3-0.7-0.6-0.9-0.9
		C196.9,227.5,196.7,227.1,196.7,227.1z"/>
	<path class="st5" d="M34.9,586.8c-0.8,0.2-1.5,0.7-2,1.3c-1,1.2-1.3,2.6-1.4,4c-0.1,1.3-0.1,2.6,0,3.9c0,0.4,0.1,0.6,0.1,1
		c0,0.3,0.1,0.7,0.2,1c0.1,0.6,0.3,1.3,0.5,1.9c0.4,1.3,1,2.6,2.1,3.6c0.5,0.5,1.2,0.9,1.9,1.1c0.7,0.2,1.4,0.2,2.1,0.1
		c1.3-0.2,2.3-0.8,3.1-1.4c1.6-1.2,2.5-2.6,3.1-3.5c0.5-1,0.6-1.6,0.6-1.6s-0.3,0.6-1,1.3c-0.7,0.8-1.9,1.8-3.5,2.6
		c-0.8,0.4-1.7,0.7-2.5,0.8c-0.9,0-1.6-0.2-2.2-0.9c-0.6-0.6-1-1.6-1.3-2.7c-0.1-0.5-0.3-1.1-0.4-1.7c0-0.3-0.1-0.6-0.1-0.9
		l-0.1-0.9c-0.1-1.2-0.2-2.4-0.1-3.5c0.1-1.1,0.3-2.2,0.7-2.8c0.2-0.3,0.5-0.5,0.8-0.7c0.3-0.1,0.8-0.2,1.2-0.1
		c0.9,0.1,1.8,0.4,2.6,0.8c1.6,0.7,3,1.6,3.9,2.1c0.9,0.6,1.4,0.9,1.4,0.9s-0.4-0.5-1.1-1.3c-0.4-0.4-0.8-0.9-1.4-1.4
		c-0.6-0.5-1.3-1.1-2.1-1.6c-0.8-0.5-1.8-1.1-3-1.3C36.4,586.7,35.7,586.6,34.9,586.8z"/>
	<path class="st5" d="M42.7,609.3c-0.5,0.2-1,0.6-1.3,1.1c-0.6,1-0.7,2.1-0.7,3c0,1,0.2,1.9,0.4,2.9c0,0.3,0.1,0.5,0.2,0.7
		c0.1,0.2,0.1,0.5,0.2,0.7c0.1,0.5,0.3,0.9,0.5,1.4c0.4,0.9,1,1.8,1.9,2.5c0.4,0.3,1,0.6,1.5,0.6c0.5,0.1,1.1,0,1.5-0.1
		c0.9-0.3,1.6-0.8,2.1-1.3c1.1-1,1.6-2.1,2-2.9c0.3-0.8,0.3-1.3,0.3-1.3s-0.2,0.4-0.6,1.1c-0.5,0.6-1.2,1.5-2.3,2.2
		c-0.5,0.3-1.2,0.7-1.8,0.8c-0.6,0.1-1.2,0-1.7-0.4c-0.5-0.4-0.9-1.1-1.2-1.8c-0.2-0.4-0.3-0.8-0.4-1.2c-0.1-0.2-0.1-0.4-0.2-0.6
		l-0.2-0.6c-0.2-0.9-0.3-1.7-0.4-2.6c0-0.8,0-1.6,0.3-2.1c0.1-0.2,0.3-0.4,0.5-0.5c0.2-0.1,0.5-0.2,0.9-0.2c0.7,0,1.4,0.1,2,0.3
		c1.3,0.4,2.3,0.9,3,1.2c0.7,0.3,1.1,0.6,1.1,0.6s-0.3-0.3-0.9-0.9c-0.3-0.3-0.7-0.6-1.2-0.9c-0.5-0.3-1-0.7-1.7-1
		c-0.7-0.3-1.4-0.6-2.3-0.7C43.8,609.1,43.2,609.1,42.7,609.3z"/>
	<path class="st5" d="M397.6,572.9c-0.5-0.6-1.3-1-2.1-1.1c-0.8-0.1-1.5,0-2.1,0.1c-1.2,0.3-2.1,1-2.9,1.5c-0.8,0.6-1.4,1.2-2,1.7
		c-0.5,0.5-1,1.1-1.3,1.5c-0.7,0.9-1,1.4-1,1.4s0.5-0.4,1.4-1c0.9-0.6,2.1-1.5,3.7-2.4c0.8-0.4,1.7-0.8,2.6-0.9
		c0.4-0.1,0.9-0.1,1.2,0c0.3,0.1,0.6,0.3,0.8,0.6c0.5,0.6,0.8,1.7,0.9,2.8c0.2,1.1,0.2,2.3,0.1,3.5l0,0.9c0,0.3,0,0.6-0.1,0.9
		c-0.1,0.6-0.1,1.1-0.2,1.7c-0.2,1.1-0.6,2.1-1.1,2.8c-0.5,0.7-1.2,1-2.1,1c-0.9,0-1.8-0.3-2.6-0.6c-1.6-0.7-2.8-1.6-3.6-2.4
		c-0.8-0.7-1.1-1.3-1.1-1.3s0.1,0.6,0.7,1.6c0.6,0.9,1.6,2.2,3.3,3.3c0.8,0.5,1.9,1.1,3.1,1.2c0.6,0.1,1.4,0,2.1-0.2
		c0.7-0.2,1.3-0.7,1.9-1.2c1-1.1,1.5-2.4,1.8-3.7c0.2-0.7,0.3-1.3,0.3-2c0-0.3,0.1-0.7,0.1-1c0-0.3,0-0.6,0-1c0-1.3,0-2.6-0.2-3.9
		C399,575.5,398.6,574.1,397.6,572.9z"/>
	<path class="st5" d="M389.2,596.1c-0.5-0.2-1.1-0.2-1.5-0.2c-0.9,0.1-1.7,0.4-2.3,0.7c-0.7,0.3-1.2,0.7-1.7,1
		c-0.5,0.3-0.9,0.6-1.2,0.9c-0.6,0.5-0.9,0.9-0.9,0.9s0.4-0.2,1.1-0.6c0.7-0.3,1.8-0.8,3-1.2c0.6-0.2,1.3-0.3,2-0.3
		c0.3,0,0.6,0.1,0.9,0.2c0.2,0.1,0.4,0.3,0.5,0.5c0.3,0.5,0.3,1.3,0.3,2.1c0,0.8-0.2,1.7-0.4,2.6l-0.2,0.6c-0.1,0.2-0.1,0.4-0.2,0.6
		c-0.1,0.4-0.3,0.8-0.4,1.2c-0.3,0.7-0.7,1.4-1.2,1.8c-0.5,0.4-1,0.5-1.7,0.4c-0.6-0.1-1.2-0.4-1.8-0.8c-1.1-0.7-1.8-1.6-2.3-2.2
		c-0.5-0.6-0.6-1.1-0.6-1.1s0,0.5,0.3,1.3c0.3,0.8,0.9,1.9,2,2.9c0.5,0.5,1.2,1,2.1,1.3c0.5,0.1,1,0.2,1.5,0.1
		c0.5-0.1,1.1-0.3,1.5-0.6c0.9-0.7,1.4-1.6,1.9-2.5c0.2-0.5,0.4-0.9,0.5-1.4c0.1-0.2,0.1-0.5,0.2-0.7c0.1-0.2,0.1-0.4,0.2-0.7
		c0.2-0.9,0.3-1.9,0.4-2.9c0-1-0.1-2-0.7-3C390.2,596.8,389.7,596.3,389.2,596.1z"/>
	<path class="st5" d="M410.5,575.1c-3.1-9.8-3.7-19.3-2-29.8c3.1-20.1-0.7-40.1-6.8-59.4c-7.2-22.8-18.4-43.7-30.3-64.4
		c-7.4-12.9-14.2-26.3-15.4-41.5c-0.8-9.8-0.5-19.8-0.5-29.7c0.1-26.3-3.8-51.4-20-73.2c-0.5-0.7-1.1-2.1-0.7-2.6
		c2.1-3.1,0.5-5.5-1.2-7.7c-3.4-4.3-6.6-8.9-10.6-12.6c-7.6-7.2-15.6-14-23.6-20.8c-1.9-1.6-2.4-3.1-1.4-5.1
		c2.5-4.9,4.6-10.1,7.7-14.5c12.3-17.1,18.4-36.6,19-57.2c0.8-27-9.2-50.8-27.4-70.7c-14.1-15.4-30-28.8-47.1-40.9
		c-14.5-10.3-26.8-22.6-34-39.4c-0.2-0.5-0.9-0.8-1.7-1.5c-10.9,18-24.8,33-40.9,45.9c-11.9,9.5-23.9,18.9-35.9,28.4
		c-5.1,4-10.8,7.5-15.2,12.2c-11.9,12.7-20.3,27.1-22.4,45.1c-2.1,17.9,0.6,34.8,7,51.2c6.3,16.3,14.1,32.1,18,49.3
		c0.6,2.5,0.4,4-1.9,5.6c-15.2,10.3-27.2,23.9-37.8,38.7c-4.2,5.9-4.1,6,0.4,11.2c-0.2,0.4-0.4,0.9-0.7,1.4
		c-7.9,12.3-13.3,25.9-15.1,40.2c-1.6,12.8-1.2,26-1,39c0.2,11.2,1.2,22.4-1.7,33.3c-3.8,14.5-10.6,27.7-17.6,40.9
		c-12.3,23.2-22.8,47.1-26.2,73.5c-1.8,13.8-4.1,27.7-0.9,41.4c2.2,9.4,2.8,18.4-0.4,27.4c-3.7,10.5-0.3,19.1,6.9,26.8
		c6.9,7.5,13.8,15,20.9,22.4c2,2.1,4.5,3.9,7.5,6.4c0.2-2.5,0.3-3.8,0.4-5c0.3-10.2,0.2-20.4,1-30.6c1-12.6-1.6-23.5-11-32.5
		c-6.9-6.6-8.5-15.2-7.6-24.2c2.2-21.3,7.1-41.8,16.9-61c10.9-21.3,21.5-42.7,32.9-63.8c10.5-19.5,13.3-40,10.8-61.7
		c-1.4-12.3-0.2-24.5,3.8-36c2.5-7.1,7-13.6,10.6-20.3c0.5,0.2,1,0.5,1.5,0.7c-0.2,1-0.3,2.1-0.6,3.1c-1.2,4.1-1.7,6.1-1.1,7.7
		c0.9,0.7,2.1,1.7,3.7,2.8l0.1-0.1c0,0,0.3,0.2,0.7,0.6c-0.1,0.3-0.2,0.5-0.2,0.8c-3.2,10.8-4.9,22-6.3,33.2
		c-2.6,22.1-3.1,44.6-8.2,66.4c-2.8,11.9-5.8,24-10.3,35.5c-3.7,9.7-9.1,17.9-15.3,26.4c-4.4,6-9.8,13.2-9.8,20.8
		c0,6.7,4.7,11.8,10.4,15.4c21.6,13.4,37.7-19.9,43.8-33.9c4.2-9.7,7.7-19.8,10.2-30.1c3.5-14.5,5.1-29.5,6.5-44.4
		c0.2,11.8,0.2,23.6-1.2,35.4c-1.4,12.1-3.1,24.4-6.2,36.3c-2.6,10-7,18.8-12.2,27.8c-3.7,6.4-8.2,14.1-7.3,21.7
		c0.8,6.7,6,11.3,12.1,14.2c23,11.1,35.3-23.6,39.7-38.1c3.1-10.1,5.4-20.5,6.7-30.9c2.8-22.5,1-45.6,1.1-68.2
		c0-5.1,0.1-10.2,0.4-15.4c0,0,0,0.1,0,0.1c1.6,22.7,5.4,45.3,4.6,68.1c-0.5,12.5-1.2,25.1-3.4,37.4c-1.9,10.4-5.6,19.6-10.1,29.1
		c-3.2,6.8-7.2,14.9-5.7,22.6c1.3,6.7,6.9,11.1,13.3,13.6c24.1,9.7,33.7-26.4,37-41.5c2.3-10.5,3.9-21.2,4.3-31.9
		c1-23.1-2.5-46.5-4.1-69.5c-1-14.4-1.5-28.9-0.6-43.4c0-0.2,0-0.3,0-0.5c-0.1-0.4-0.1-0.7-0.2-1.1c0.3-3.5,0.6-7,1-10.5
		c0.6-4.2,1.2-8.5,1.9-12.7c2.2,0.1,4.5,0.1,6.8,0c0.7,4.2,1.3,8.4,1.9,12.7c0.5,3.5,0.7,7,1,10.5c-0.1,0.4-0.1,0.8-0.2,1.1
		c0,0.2,0,0.3,0,0.5c0.8,14.5,0.4,29-0.6,43.4c-1.6,23-5.2,46.4-4.1,69.5c0.5,10.7,2,21.4,4.3,31.9c3.3,15.1,13,51.2,37,41.5
		c6.4-2.6,12-6.9,13.3-13.6c1.5-7.7-2.5-15.8-5.7-22.6c-4.5-9.5-8.3-18.7-10.1-29.1c-2.2-12.3-2.9-24.9-3.4-37.4
		c-0.9-22.8,3-45.4,4.6-68.1c0,0,0-0.1,0-0.1c0.2,5.1,0.3,10.2,0.4,15.4c0.1,22.6-1.6,45.7,1.1,68.2c1.3,10.4,3.6,20.8,6.7,30.9
		c4.4,14.5,16.6,49.2,39.7,38.1c6.1-2.9,11.3-7.6,12.1-14.2c0.9-7.6-3.6-15.3-7.3-21.7c-5.2-9-9.6-17.7-12.2-27.8
		c-3.1-11.9-4.8-24.1-6.2-36.3c-1.4-11.8-1.4-23.6-1.2-35.4c1.4,14.9,3,29.9,6.5,44.4c2.5,10.2,6,20.3,10.2,30.1
		c6.1,14,22.2,47.3,43.8,33.9c5.7-3.5,10.4-8.7,10.4-15.4c0-7.6-5.4-14.8-9.8-20.8c-6.2-8.4-11.5-16.7-15.3-26.4
		c-4.4-11.5-7.5-23.5-10.3-35.5c-5.1-21.8-5.6-44.3-8.2-66.4c-1.3-11.1-3.1-22.3-6.3-33.2c-0.3-0.9-0.6-1.9-0.9-2.8
		c-0.5,0.3-0.9,0.6-1.4,0.9c0.4-0.3,0.9-0.7,1.3-1l0.1,0.1c1.5-1.2,2.9-2.3,4.4-3.6c0.4-1.4,0.1-2.9-1-4.7c-2-3.5-3.2-7.4-4.7-11.1
		c0.5-0.3,1.1-0.6,1.6-0.8c1.9,3,4.3,5.9,5.7,9.1c6.9,15.6,8.6,32.1,7.5,49c-1.2,18.7,2.9,36.2,12.2,52.6
		c9,15.9,17.4,32.1,26.8,47.8c12.7,21.4,22.7,43.6,27.2,68.3c2.5,14,1.9,26.7-8.7,37.4c-5.8,5.8-7.6,13.1-7,21.1
		c0.7,10.3,1.4,20.6,2.1,30.9c0.2,3.7,0.5,7.4,0.8,11.7c1.4-1,2-1.3,2.5-1.8c9.2-10.4,18.5-20.6,27.5-31.2
		C411.7,590.4,413,582.9,410.5,575.1z M316.2,121.2c0.2,0.6,0.4,1.1,0.6,1.7c-0.4,0-0.8,0-1.3,0c-1.7,0-3.7,0-5.9,0.1
		c-2.1,0-4.4,0.1-6.7,0.2c-2.3,0.1-4.6,0.2-6.7,0.3c-2.1,0.1-4.1,0.2-5.9,0.3c-1.7,0.1-3.1,0.2-4.1,0.3c0,0-0.1,0-0.1,0
		c-0.4-1.2-0.9-2.4-1.3-3.6c0.2,0,0.5,0,0.9,0c1,0,2.4,0,4.2,0c1.7,0,3.7,0,5.9-0.1c2.1,0,4.4-0.1,6.7-0.2c2.3-0.1,4.6-0.2,6.7-0.3
		c2.1-0.1,4.1-0.2,5.9-0.3c0.2,0,0.4,0,0.5,0C315.8,120.1,316,120.7,316.2,121.2z M286.3,124.2c1,0,2.4,0,4.2,0c1.7,0,3.7,0,5.9-0.1
		c2.1,0,4.4-0.1,6.7-0.2c2.3-0.1,4.6-0.2,6.7-0.3c2.1-0.1,4.1-0.2,5.9-0.3c0.5,0,1-0.1,1.4-0.1c0.5,1.3,0.9,2.7,1.3,4
		c-0.4,0-0.8,0-1.2,0c-1.7,0-3.7,0-5.9,0.1c-2.1,0-4.4,0.1-6.7,0.2c-2.3,0.1-4.6,0.2-6.7,0.3c-2.1,0.1-4.1,0.2-5.9,0.3
		c-1.7,0.1-3.1,0.2-4.1,0.3c0,0,0,0-0.1,0C287.2,127,286.7,125.6,286.3,124.2C286.2,124.2,286.2,124.2,286.3,124.2z M287.8,128.6
		c1,0,2.4,0,4.2,0c1.7,0,3.7,0,5.9-0.1c2.1,0,4.4-0.1,6.7-0.2c2.3-0.1,4.6-0.2,6.7-0.3c2.1-0.1,4.1-0.2,5.9-0.3
		c0.5,0,0.9-0.1,1.3-0.1c0.4,1.4,0.8,2.9,1.1,4.3c-0.7,0-1.4,0-2.2,0c-1.7,0-3.7,0-5.9,0.1c-2.1,0-4.4,0.1-6.7,0.2
		c-2.3,0.1-4.6,0.2-6.7,0.3c-2.1,0.1-4.1,0.2-5.9,0.3c-1.1,0.1-2,0.1-2.8,0.2C288.8,131.5,288.3,130,287.8,128.6
		C287.8,128.6,287.8,128.6,287.8,128.6z M292.2,133.3c1.7,0,3.7,0,5.9-0.1c2.1,0,4.4-0.1,6.7-0.2c2.3-0.1,4.6-0.2,6.7-0.3
		c2.1-0.1,4.1-0.2,5.9-0.3c0.8,0,1.6-0.1,2.3-0.2c0.3,1.2,0.5,2.3,0.7,3.5c-1.7,0-3.7,0-5.8,0.1c-2.1,0-4.4,0.1-6.7,0.2
		c-2.3,0.1-4.6,0.2-6.7,0.3c-2.1,0.1-4.1,0.2-5.9,0.3c-1.7,0.1-3.1,0.2-4.1,0.3c-0.1,0-0.2,0-0.4,0c-0.4-1.2-0.8-2.4-1.3-3.6
		C290.3,133.3,291.2,133.3,292.2,133.3z M291.1,137c1,0,2.4,0,4.2,0c1.7,0,3.7,0,5.9-0.1c2.1,0,4.4-0.1,6.7-0.2
		c2.3-0.1,4.6-0.2,6.7-0.3c2.1-0.1,4.1-0.2,5.9-0.3c0,0,0,0,0,0c0.2,1.3,0.5,2.6,0.6,3.9c-1.5,0-3.2,0-5,0c-2.1,0-4.4,0.1-6.7,0.2
		c-2.3,0.1-4.6,0.2-6.7,0.3c-2.1,0.1-4.1,0.2-5.9,0.3c-1.7,0.1-3.1,0.2-4.1,0.3c-0.1,0-0.3,0-0.4,0c-0.5-1.4-1-2.8-1.5-4.3
		C290.9,137,291,137,291.1,137z M321.9,157.1c-0.8,0-1.7,0-2.6,0c-2.1,0-4.4,0.1-6.7,0.2c-2.3,0.1-4.6,0.2-6.7,0.3
		c-2.1,0.1-4.1,0.2-5.9,0.3c-1,0.1-1.9,0.1-2.7,0.2c-0.3-1.3-0.6-2.7-1-4c0.1,0,0.2,0,0.2,0c1,0,2.4,0,4.2,0c1.7,0,3.7,0,5.9-0.1
		c2.1,0,4.4-0.1,6.7-0.2c2.3-0.1,4.6-0.2,6.7-0.3c0.7,0,1.4-0.1,2-0.1C321.9,154.8,321.9,156,321.9,157.1z M319.9,152.9
		c-2.1,0-4.4,0.1-6.7,0.2c-2.3,0.1-4.6,0.2-6.7,0.3c-2.1,0.1-4.1,0.2-5.9,0.3c-1.7,0.1-3.1,0.2-4.1,0.3c-0.1,0-0.2,0-0.3,0
		c-0.2-0.6-0.3-1.2-0.5-1.7c-0.2-0.8-0.5-1.7-0.8-2.5c1,0,2.4,0,4.1,0c1.7,0,3.7,0,5.9-0.1c2.1,0,4.4-0.1,6.7-0.2
		c2.3-0.1,4.6-0.2,6.7-0.3c1.2-0.1,2.4-0.1,3.5-0.2c0,1.3,0.1,2.5,0.1,3.8C321.3,152.9,320.6,152.9,319.9,152.9z M293.8,146
		c1,0,2.3,0,3.9,0c1.7,0,3.7,0,5.9-0.1c2.1,0,4.4-0.1,6.7-0.2c2.3-0.1,4.6-0.2,6.7-0.3c1.7-0.1,3.2-0.2,4.7-0.3
		c0.1,1.1,0.2,2.2,0.2,3.2c-1.1,0-2.3,0-3.5,0c-2.1,0-4.4,0.1-6.7,0.2c-2.3,0.1-4.6,0.2-6.7,0.3c-2.1,0.1-4.1,0.2-5.9,0.3
		c-1.7,0.1-3.1,0.2-4.1,0.3c0,0,0,0,0,0C294.5,148.4,294.2,147.2,293.8,146z M292.7,141.4c1,0,2.4,0,4.2,0c1.7,0,3.7,0,5.9-0.1
		c2.1,0,4.4-0.1,6.7-0.2c2.3-0.1,4.6-0.2,6.7-0.3c1.8-0.1,3.5-0.2,5.1-0.3c0.2,1.3,0.3,2.7,0.5,4c-1.4,0-3,0-4.7,0
		c-2.1,0-4.4,0.1-6.7,0.2c-2.3,0.1-4.6,0.2-6.7,0.3c-2.1,0.1-4.1,0.2-5.9,0.3c-1.6,0.1-3,0.2-4,0.3c-0.5-1.5-0.9-2.9-1.4-4.4
		C292.4,141.4,292.5,141.4,292.7,141.4z M300,158.4c1.7,0,3.7,0,5.9-0.1c2.1,0,4.4-0.1,6.7-0.2c2.3-0.1,4.6-0.2,6.7-0.3
		c0.9,0,1.7-0.1,2.5-0.1c-0.1,1.3-0.2,2.6-0.3,3.9c-0.2,0-0.3,0-0.5,0c-2.1,0-4.4,0.1-6.7,0.2c-2.3,0.1-4.6,0.2-6.7,0.3
		c-2.1,0.1-4.1,0.2-5.9,0.3c-1.4,0.1-2.6,0.2-3.6,0.2c-0.3-1.4-0.5-2.9-0.8-4.3C298.1,158.4,299,158.4,300,158.4z M321,165.5
		c-1.7,0-3.5,0.1-5.3,0.1c-2.3,0.1-4.6,0.2-6.7,0.3c-2.1,0.1-4.1,0.2-5.9,0.3c-1.7,0.1-3.1,0.2-4.1,0.3c-0.1,0-0.2,0-0.2,0
		c-0.2-1.2-0.4-2.4-0.6-3.6c0.9,0,2.1,0,3.6,0c1.7,0,3.7,0,5.9-0.1c2.1,0,4.4-0.1,6.7-0.2c2.3-0.1,4.6-0.2,6.7-0.3
		c0.1,0,0.2,0,0.4,0C321.3,163.5,321.2,164.5,321,165.5z M320.3,170c-1.3,0-2.6,0.1-3.9,0.1c-2.3,0.1-4.6,0.2-6.7,0.3
		c-2.1,0.1-4.1,0.2-5.9,0.3c-1.7,0.1-3.1,0.2-4.1,0.3c-0.1,0-0.3,0-0.4,0c-0.1-1.4-0.3-2.8-0.5-4.3c0.1,0,0.1,0,0.2,0
		c1,0,2.4,0,4.2,0c1.7,0,3.7,0,5.9-0.1c2.1,0,4.4-0.1,6.7-0.2c1.8-0.1,3.5-0.1,5.2-0.2C320.7,167.5,320.5,168.7,320.3,170z
		 M319.4,174.6c-0.7,0-1.3,0-2,0.1c-2.3,0.1-4.6,0.2-6.7,0.3c-2.1,0.1-4.1,0.2-5.9,0.3c-1.7,0.1-3.1,0.2-4.1,0.3
		c-0.4,0-0.7,0.1-1,0.1c-0.1-1.5-0.2-3-0.3-4.5c0.1,0,0.3,0,0.4,0c1,0,2.4,0,4.2,0c1.7,0,3.7,0,5.9-0.1c2.1,0,4.4-0.1,6.7-0.2
		c1.3,0,2.5-0.1,3.8-0.1C319.9,172,319.7,173.3,319.4,174.6z M318.4,178.4c-0.5,0-0.9,0-1.4,0c-2.3,0.1-4.6,0.2-6.7,0.3
		c-2.1,0.1-4.1,0.2-5.9,0.3c-1.7,0.1-3.1,0.2-4.1,0.3c-0.2,0-0.4,0-0.5,0c0-1.2-0.1-2.5-0.2-3.7c0.3,0,0.6,0,1,0c1,0,2.4,0,4.2,0
		c1.7,0,3.7,0,5.9-0.1c2.1,0,4.4-0.1,6.7-0.2c0.6,0,1.2,0,1.8-0.1C318.9,176.4,318.7,177.4,318.4,178.4z M317.2,182.8
		c-0.1,0-0.2,0-0.3,0c-2.3,0.1-4.6,0.2-6.7,0.3c-2.1,0.1-4.1,0.2-5.9,0.3c-1.7,0.1-3.1,0.2-4.1,0.3c-0.1,0-0.2,0-0.3,0
		c0-1.4,0-2.8-0.1-4.3c0.2,0,0.3,0,0.5,0c1,0,2.4,0,4.2,0c1.7,0,3.7,0,5.9-0.1c2.1,0,4.4-0.1,6.7-0.2c0.4,0,0.8,0,1.2,0
		C317.9,180.5,317.6,181.6,317.2,182.8z M315.8,187.5c-1.6,0.1-3.2,0.1-4.7,0.2c-2.1,0.1-4.1,0.2-5.9,0.3c-1.7,0.1-3.1,0.2-4.1,0.3
		c-0.5,0-0.9,0.1-1.2,0.1c0-1.5,0-3,0-4.5c0.1,0,0.2,0,0.3,0c1,0,2.4,0,4.2,0c1.7,0,3.7,0,5.9-0.1c2.1,0,4.4-0.1,6.7-0.2
		c0,0,0,0,0.1,0C316.6,184.9,316.2,186.2,315.8,187.5z M314.4,191.3c-0.9,0-1.9,0.1-2.8,0.1c-2.1,0.1-4.1,0.2-5.9,0.3
		c-1.7,0.1-3.1,0.2-4.1,0.3c-1,0.1-1.6,0.1-1.6,0.1s0.6,0,1.6,0c1,0,2.4,0,4.2,0c1.7,0,3.7,0,5.9-0.1c0.8,0,1.6,0,2.5-0.1
		c-0.5,1.2-1,2.4-1.5,3.6c-0.7,0-1.3,0.1-2,0.1c-2.1,0.1-4.1,0.2-5.9,0.3c-1.7,0.1-3.1,0.2-4.1,0.3c-0.4,0-0.8,0.1-1,0.1
		c0.1-2.7,0.2-5.4,0.3-8.1c0.3,0,0.7,0,1.2,0c1,0,2.4,0,4.2,0c1.7,0,3.7,0,5.9-0.1c1.4,0,2.9-0.1,4.4-0.1
		C315.1,189.3,314.8,190.3,314.4,191.3z M310.3,200.5c-0.1,0-0.3,0-0.4,0c-2.1,0.1-4.1,0.2-5.9,0.3c-1.7,0.1-3.1,0.2-4.1,0.3
		c-0.2,0-0.5,0-0.7,0.1c0.1-1.5,0.2-3.1,0.3-4.6c0.3,0,0.6,0,1,0c1,0,2.4,0,4.2,0s3.7,0,5.9-0.1c0.5,0,1.1,0,1.6,0
		C311.6,197.9,311,199.2,310.3,200.5z M305.7,208.5c-0.5,0-1.1,0.1-1.6,0.1c-1.7,0.1-3.1,0.2-4.1,0.3c-0.4,0-0.8,0.1-1.1,0.1
		c0.1-1.3,0.1-2.6,0.2-3.9c0.2,0,0.4,0,0.6,0c1,0,2.4,0,4.2,0c1.2,0,2.6,0,4,0C307.1,206.2,306.4,207.4,305.7,208.5z M303.1,212.1
		c-0.1,0-0.1,0-0.2,0c-1.7,0.1-3.1,0.2-4.1,0.3c0,0-0.1,0-0.1,0c0-1.1,0.1-2.3,0.2-3.4c0.3,0,0.6,0,1.1,0c1,0,2.4,0,4.2,0
		c0.4,0,0.8,0,1.2,0C304.6,210.1,303.9,211.1,303.1,212.1z M299.2,202c0-0.2,0-0.5,0-0.7c0.2,0,0.4,0,0.7,0c1,0,2.4,0,4.2,0
		c1.7,0,3.7,0,5.8-0.1c-0.5,1-1.1,2.1-1.7,3.1c-1.6,0.1-3.1,0.2-4.5,0.3c-1.7,0.1-3.1,0.2-4.1,0.3c-0.2,0-0.4,0-0.6,0
		C299.1,203.9,299.2,203,299.2,202z M298.5,217.9c0.1-1.8,0.2-3.6,0.2-5.3c0,0,0.1,0,0.1,0c1,0,2.3,0,4,0
		C301.4,214.4,300,216.1,298.5,217.9z M315,119.2c-1.7,0-3.7,0-5.9,0.1c-2.1,0-4.4,0.1-6.7,0.2c-2.3,0.1-4.6,0.2-6.7,0.3
		c-2.1,0.1-4.1,0.2-5.9,0.3c-1.7,0.1-3.1,0.2-4.1,0.3c-0.4,0-0.7,0.1-0.9,0.1c-0.5-1.5-1.1-3-1.6-4.5c1,0,2.4,0,4.1,0
		c1.7,0,3.7,0,5.9-0.1c2.1,0,4.4-0.1,6.7-0.2c2.3-0.1,4.6-0.2,6.7-0.3c2.1-0.1,4.1-0.2,5.9-0.3c0.4,0,0.7,0,1.1-0.1
		c0.7,1.4,1.3,2.7,1.9,4.1C315.3,119.2,315.2,119.2,315,119.2z M313.3,114.6c-0.3,0-0.6,0-0.9,0c-1.7,0-3.7,0-5.9,0.1
		c-2.1,0-4.4,0.1-6.7,0.2c-2.3,0.1-4.6,0.2-6.7,0.3c-2.1,0.1-4.1,0.2-5.9,0.3c-1.7,0.1-3.1,0.2-4.1,0.3c0,0,0,0,0,0
		c-0.5-1.4-1-2.8-1.5-4.2c1,0,2.4,0,4.1,0c1.7,0,3.7,0,5.9-0.1c2.1,0,4.4-0.1,6.7-0.2c2.3-0.1,4.6-0.2,6.7-0.3
		c2.1-0.1,4.1-0.2,5.9-0.3c0.1,0,0.2,0,0.3,0C312,112,312.7,113.3,313.3,114.6z M310.9,110.2c-1.7,0-3.7,0-5.9,0.1
		c-2.1,0-4.4,0.1-6.7,0.2c-2.3,0.1-4.6,0.2-6.7,0.3c-2.1,0.1-4.1,0.2-5.9,0.3c-1.7,0.1-3.1,0.2-4.1,0.3c0,0,0,0,0,0
		c-0.2-0.6-0.5-1.3-0.7-1.9c-0.2-0.6-0.4-1.1-0.7-1.7c0.7,0,1.6,0,2.5,0c1.7,0,3.7,0,5.9-0.1c2.1,0,4.4-0.1,6.7-0.2
		c2.3-0.1,4.6-0.2,6.7-0.3c2.1-0.1,4.1-0.2,5.9-0.3c0.4,0,0.8,0,1.2-0.1c0.7,1.1,1.4,2.2,2,3.4C310.9,110.2,310.9,110.2,310.9,110.2
		z M307.8,106.4c-1.7,0-3.7,0-5.9,0.1c-2.1,0-4.4,0.1-6.7,0.2c-2.3,0.1-4.6,0.2-6.7,0.3c-2.1,0.1-4.1,0.2-5.9,0.3
		c-1,0.1-1.8,0.1-2.6,0.2c-0.6-1.5-1.3-2.9-2-4.3c1,0,2.2,0,3.6,0c1.7,0,3.7,0,5.9-0.1c2.1,0,4.4-0.1,6.7-0.2
		c2.3-0.1,4.6-0.2,6.7-0.3c1.8-0.1,3.5-0.2,5-0.3c0.9,1.3,1.8,2.7,2.7,4.1C308.4,106.4,308.1,106.4,307.8,106.4z M301,101.9
		c-2.1,0-4.4,0.1-6.7,0.2c-2.3,0.1-4.6,0.2-6.7,0.3c-2.1,0.1-4.1,0.2-5.9,0.3c-1.5,0.1-2.7,0.2-3.7,0.3c-0.6-1.4-1.3-2.8-1.8-4.2
		c0.9,0,1.9,0,3.1,0c1.7,0,3.7,0,5.9-0.1c2.1,0,4.4-0.1,6.7-0.2c2.3-0.1,4.6-0.2,6.7-0.3c1.5-0.1,2.9-0.2,4.3-0.2
		c0.9,1.3,1.9,2.5,2.8,3.8C304.2,101.8,302.6,101.8,301,101.9z M298.6,97.5c-2.1,0-4.4,0.1-6.7,0.2c-2.3,0.1-4.6,0.2-6.7,0.3
		c-2.1,0.1-4.1,0.2-5.9,0.3c-1.2,0.1-2.3,0.2-3.2,0.2c-0.4-1.2-0.9-2.4-1.4-3.5c0.7,0,1.5,0,2.4,0c1.7,0,3.7,0,5.9-0.1
		c2.1,0,4.4-0.1,6.7-0.2c2.3-0.1,4.6-0.2,6.7-0.3c1.3-0.1,2.5-0.1,3.6-0.2c0.8,1.1,1.6,2.1,2.5,3.2
		C301.2,97.5,299.9,97.5,298.6,97.5z M296.3,93.7c-2.1,0-4.4,0.1-6.7,0.2c-2.3,0.1-4.6,0.2-6.7,0.3c-2.1,0.1-4.1,0.2-5.9,0.3
		c-0.9,0.1-1.8,0.1-2.5,0.2c-0.6-1.4-1.3-2.9-2-4.2c0.8,0,1.7,0,2.7,0c1.7,0,3.7,0,5.9-0.1c2.1,0,4.4-0.1,6.7-0.2
		c2.3-0.1,4.6-0.2,6.7-0.3c0.6,0,1.2-0.1,1.8-0.1c1,1.3,2.1,2.6,3.1,3.9C298.5,93.7,297.5,93.7,296.3,93.7z M294.6,89.2
		c-2.1,0-4.4,0.1-6.7,0.2c-2.3,0.1-4.6,0.2-6.7,0.3c-2.1,0.1-4.1,0.2-5.9,0.3c-1.1,0.1-2,0.1-2.8,0.2c-0.7-1.4-1.4-2.8-2.2-4.1
		c0.8,0,1.7,0,2.7,0c1.7,0,3.7,0,5.9-0.1c2.1,0,4.4-0.1,6.7-0.2c2.3-0.1,4.6-0.2,6.7-0.3c0.2,0,0.4,0,0.6,0c0.3,0.3,0.6,0.7,0.9,1
		c0.7,0.9,1.4,1.8,2.2,2.6C295.4,89.2,295,89.2,294.6,89.2z M292.2,84.8c-2.1,0-4.4,0.1-6.7,0.2c-2.3,0.1-4.6,0.2-6.7,0.3
		c-2.1,0.1-4.1,0.2-5.9,0.3c-1.1,0.1-2,0.1-2.8,0.2c-0.7-1.2-1.4-2.3-2.1-3.5c0.3,0,0.6,0,1,0c1.7,0,3.7,0,5.9-0.1
		c2.1,0,4.4-0.1,6.7-0.2c2.3-0.1,4.6-0.2,6.7-0.3c0.4,0,0.8,0,1.2-0.1C290.4,82.7,291.3,83.7,292.2,84.8
		C292.2,84.8,292.2,84.8,292.2,84.8z M288.3,81c-2.1,0-4.4,0.1-6.7,0.2c-2.3,0.1-4.6,0.2-6.7,0.3c-2.1,0.1-4.1,0.2-5.9,0.3
		c-0.4,0-0.8,0-1.2,0.1c-0.9-1.4-1.9-2.9-2.8-4.3c0.9,0,1.9,0,3,0c1.7,0,3.7,0,5.9-0.1c2.1,0,4.4-0.1,6.7-0.2
		c1.6-0.1,3.2-0.1,4.7-0.2c1.2,1.3,2.4,2.5,3.6,3.8C288.7,81,288.5,81,288.3,81z M280.5,76.5c-2.3,0.1-4.6,0.2-6.7,0.3
		c-2.1,0.1-4.1,0.2-5.9,0.3c-1.2,0.1-2.3,0.2-3.2,0.2c-1-1.4-1.9-2.8-2.9-4.1c1,0,2.2,0,3.7,0c1.7,0,3.7,0,5.9-0.1
		c2.1,0,4.4-0.1,6.7-0.2c0.9,0,1.8-0.1,2.7-0.1c1.2,1.2,2.4,2.3,3.6,3.5C283.1,76.4,281.8,76.5,280.5,76.5z M280,72.1
		c-0.6,0-1.3,0-1.9,0.1c-2.3,0.1-4.6,0.2-6.7,0.3c-2.1,0.1-4.1,0.2-5.9,0.3c-1.6,0.1-2.9,0.2-3.8,0.3c-0.9-1.2-1.8-2.4-2.7-3.6
		c0.8,0,1.6,0,2.6,0c1.7,0,3.7,0,5.9-0.1c2.1,0,4.4-0.1,6.7-0.2c0.9,0,1.7-0.1,2.6-0.1C277.8,70.1,278.9,71.1,280,72.1z M274.1,68.3
		c-2.3,0.1-4.6,0.2-6.7,0.3c-2.1,0.1-4.1,0.2-5.9,0.3c-1.1,0.1-2,0.1-2.8,0.2c-0.9-1.2-1.8-2.3-2.6-3.4c-0.2-0.3-0.4-0.5-0.6-0.8
		c0.8,0,1.6,0,2.6,0c1.7,0,3.7,0,5.9-0.1c2.1,0,4.4-0.1,6.7-0.2c0.3,0,0.5,0,0.8,0c1.4,1.2,2.9,2.4,4.3,3.7
		C275.3,68.3,274.7,68.3,274.1,68.3z M264,64.1c-2.1,0.1-4.1,0.2-5.9,0.3c-1.1,0.1-2,0.1-2.8,0.2c-1.1-1.4-2.1-2.7-3.2-4.1
		c0.1,0,0.2,0,0.3,0c1,0,2.4,0,4.2,0c1.7,0,3.7,0,5.9-0.1c1.3,0,2.6-0.1,3.9-0.1c1.4,1.1,2.8,2.3,4.2,3.5
		C268.3,63.9,266.1,64,264,64.1z M262.4,59.7c-2.1,0.1-4.1,0.2-5.9,0.3c-1.7,0.1-3.1,0.2-4.1,0.3c-0.1,0-0.3,0-0.4,0
		c-0.9-1.2-1.8-2.4-2.8-3.6c0,0,0.1,0,0.1,0c1,0,2.4,0,4.2,0c1.7,0,3.7,0,5.9-0.1c0.7,0,1.4,0,2.2,0c1.3,1,2.5,2,3.8,2.9
		C264.3,59.6,263.3,59.6,262.4,59.7z M259.3,55.9c-2.1,0.1-4.1,0.2-5.9,0.3c-1.7,0.1-3.1,0.2-4.1,0.3c-0.1,0-0.1,0-0.2,0
		c-0.9-1.2-1.8-2.4-2.7-3.5c0.3,0,0.7,0,1.2,0c1,0,2.4,0,4.2,0c1.5,0,3.2,0,5,0c1.3,0.9,2.5,1.9,3.8,2.9
		C260.1,55.9,259.7,55.9,259.3,55.9z M251.8,52.5c-1.7,0.1-3.1,0.2-4.1,0.3c-0.5,0-0.9,0.1-1.2,0.1c-1-1.3-1.9-2.5-2.9-3.8
		c0.2,0,0.7,0,1.4,0c1,0,2.4,0,4.2,0c0.8,0,1.6,0,2.5,0c1.4,1,2.9,2.1,4.3,3.2C254.4,52.4,253,52.5,251.8,52.5z M250.8,48.6
		c-0.6,0-1.2,0.1-1.7,0.1c-1.7,0.1-3.1,0.2-4.1,0.3c-0.7,0.1-1.2,0.1-1.4,0.1c-0.9-1.2-1.8-2.4-2.7-3.6c0.3,0,0.6,0,1,0
		c1,0,2.4,0,4.2,0c0.2,0,0.4,0,0.6,0C248,46.6,249.4,47.6,250.8,48.6z M246,45.1c-1.7,0.1-3.1,0.2-4.1,0.3c-0.4,0-0.8,0.1-1.1,0.1
		c-1.5-2-2.9-3.9-4.4-5.9c-0.4-0.5-0.5-1.1-1-2.2C238.9,40,242.4,42.5,246,45.1z M213.2,12.7c0.4-0.5,1-0.9,1.7-1.7
		c1.4,2.7,2.5,5.3,4.1,7.6c12.9,18.6,25.9,37.1,38.8,55.7c9.9,14.3,17.1,30,22.8,46.3c3.9,11,7.3,22.4,9.6,33.8
		c4.7,23.1,5.6,46.6,4.9,70.1c-0.1,4.2-1.6,6.9-6,8.8c-24.9,10.4-50.7,16.5-77.6,18.7c-15.6,1.3-31.1,1.1-46.6-1.1
		c-11.8-1.7-23.4-4.5-34.1-9.9c-1.5-0.8-2.9-3.1-3.1-4.8c-3.8-29.6-0.9-58.6,6.8-87.3c8-29.6,22.2-56,39-81.1
		C186.2,49,200,31,213.2,12.7z M223,256.5c-3.8,7-7.1,13.3-10.6,19.8c-0.8-0.8-1.4-1.2-1.8-1.7c-3.7-5.1-7.4-10.2-11.6-16
		C207.2,257.9,214.5,257.3,223,256.5z M125.1,166.6c-0.3,0-0.6,0-1-0.1c-1-0.1-2.4-0.2-4.1-0.3c-1.7-0.1-3.7-0.2-5.9-0.3
		c-2.1-0.1-4.4-0.2-6.7-0.3c-1.2,0-2.4-0.1-3.6-0.1c-0.2-1-0.4-2-0.5-3c1.8,0.1,3.7,0.1,5.5,0.2c2.3,0.1,4.6,0.1,6.7,0.2
		c2.1,0,4.2,0,5.9,0.1c1.7,0,3.2,0,4.2,0c0.1,0,0.2,0,0.3,0C125.6,164.2,125.3,165.4,125.1,166.6z M102.4,156
		c-0.1-0.8-0.1-1.6-0.2-2.4c0.3,0,0.6,0,0.9,0c2.1,0.1,4.4,0.2,6.7,0.3c2.3,0.1,4.6,0.1,6.7,0.2c2.1,0,4.1,0,5.9,0.1
		c1.7,0,3.2,0,4.2,0c0.4,0,0.7,0,1,0c-0.3,1.4-0.6,2.7-0.9,4.1c-0.9-0.1-2.2-0.2-3.6-0.3c-1.7-0.1-3.7-0.2-5.9-0.3
		c-2.1-0.1-4.4-0.2-6.7-0.3c-2.3-0.1-4.6-0.1-6.7-0.2c-0.4,0-0.9,0-1.3,0C102.5,156.8,102.5,156.4,102.4,156z M102,149.1
		c0.9,0.1,1.8,0.1,2.7,0.1c2.1,0.1,4.4,0.2,6.7,0.3c2.3,0.1,4.6,0.1,6.7,0.2c2.1,0,4.2,0,5.9,0.1c1.7,0,3.2,0,4.2,0
		c0.2,0,0.4,0,0.5,0c-0.4,1.4-0.7,2.9-1.1,4.3c-0.3,0-0.6-0.1-1-0.1c-1-0.1-2.4-0.2-4.1-0.3c-1.7-0.1-3.7-0.2-5.9-0.3
		c-2.1-0.1-4.4-0.2-6.7-0.3c-2.3-0.1-4.6-0.1-6.7-0.2c-0.3,0-0.7,0-1,0C102.1,151.6,102.1,150.4,102,149.1z M102,145.3
		c1.3,0.1,2.6,0.2,4.1,0.2c2.1,0.1,4.4,0.2,6.7,0.3c2.3,0.1,4.6,0.1,6.7,0.2c2.1,0,4.2,0,5.9,0.1c1.7,0,3.2,0,4.2,0
		c0.1,0,0.1,0,0.1,0c-0.3,1.2-0.7,2.4-1,3.7c-0.2,0-0.3,0-0.5,0c-1-0.1-2.4-0.2-4.1-0.3c-1.7-0.1-3.7-0.2-5.9-0.3
		c-2.1-0.1-4.4-0.2-6.7-0.3c-2.3-0.1-4.6-0.1-6.7-0.2c-1,0-1.9,0-2.7,0C102,147.4,102,146.3,102,145.3z M102.2,140.7
		c1.5,0.1,3.1,0.2,4.8,0.3c2.1,0.1,4.4,0.2,6.7,0.3c2.3,0.1,4.6,0.1,6.7,0.2c2.1,0,4.2,0,5.9,0.1c1.7,0,3.2,0,4.2,0
		c0.2,0,0.4,0,0.6,0c-0.4,1.5-0.9,2.9-1.3,4.4c-0.1,0-0.1,0-0.2,0c-1-0.1-2.4-0.2-4.1-0.3c-1.7-0.1-3.7-0.2-5.9-0.3
		c-2.1-0.1-4.4-0.2-6.7-0.3c-2.3-0.1-4.6-0.1-6.7-0.2c-1.5,0-2.8,0-4.1,0C102.1,143.4,102.1,142,102.2,140.7z M104.2,127.7
		c0.5,0,1.1,0.1,1.8,0.1c1.7,0.1,3.7,0.2,5.9,0.3c2.1,0.1,4.4,0.2,6.7,0.3c2.3,0.1,4.6,0.1,6.7,0.2c2.1,0,4.1,0,5.9,0.1
		c1.7,0,3.1,0,4.1,0c-0.5,1.5-1.1,2.9-1.6,4.4c-0.8-0.1-1.7-0.1-2.8-0.2c-1.7-0.1-3.7-0.2-5.9-0.3c-2.1-0.1-4.4-0.2-6.7-0.3
		c-2.3-0.1-4.6-0.1-6.7-0.2c-2.1,0-4.2,0-5.9-0.1c-0.9,0-1.8,0-2.5,0C103.6,130.5,103.9,129.1,104.2,127.7z M105.5,123.3
		c0.6,0,1.3,0.1,2.1,0.1c1.7,0.1,3.7,0.2,5.9,0.3c2.1,0.1,4.4,0.2,6.7,0.3c2.3,0.1,4.6,0.1,6.7,0.2c2.1,0,4.2,0,5.9,0.1
		c1.7,0,3.2,0,4.2,0c0,0,0.1,0,0.1,0c-0.5,1.4-1.1,2.8-1.6,4.2c0,0,0,0,0,0c-1-0.1-2.4-0.2-4.1-0.3c-1.7-0.1-3.7-0.2-5.9-0.3
		c-2.1-0.1-4.4-0.2-6.7-0.3c-2.3-0.1-4.6-0.1-6.7-0.2c-2.1,0-4.2,0-5.9-0.1c-0.6,0-1.2,0-1.7,0C104.7,126,105.1,124.6,105.5,123.3z
		 M106.8,119.5c0.4,0,0.8,0.1,1.3,0.1c1.7,0.1,3.7,0.2,5.9,0.3c2.1,0.1,4.4,0.2,6.7,0.3c2.3,0.1,4.6,0.1,6.7,0.2
		c2.1,0,4.2,0,5.9,0.1c1.7,0,3.2,0,4.2,0c0.5,0,0.8,0,1.1,0c-0.5,1.2-1,2.4-1.5,3.6c-0.1,0-0.1,0-0.2,0c-1-0.1-2.4-0.2-4.1-0.3
		c-1.7-0.1-3.7-0.2-5.9-0.3c-2.1-0.1-4.4-0.2-6.7-0.3c-2.3-0.1-4.6-0.1-6.7-0.2c-2.1,0-4.1,0-5.9-0.1c-0.7,0-1.4,0-2,0
		C106,121.8,106.4,120.7,106.8,119.5z M105.8,132.5c1.7,0.1,3.7,0.2,5.9,0.3c2.1,0.1,4.4,0.2,6.7,0.3c2.3,0.1,4.6,0.1,6.7,0.2
		c2.1,0,4.2,0,5.9,0.1c1,0,1.9,0,2.7,0c-0.4,1.2-0.8,2.4-1.2,3.6c-0.1,0-0.3,0-0.4,0c-1-0.1-2.4-0.2-4.1-0.3
		c-1.7-0.1-3.7-0.2-5.9-0.3c-2.1-0.1-4.4-0.2-6.7-0.3c-2.3-0.1-4.6-0.1-6.7-0.2c-2.1,0-4.2,0-5.9-0.1h0c0.2-1.2,0.3-2.3,0.5-3.5
		C104,132.4,104.8,132.4,105.8,132.5z M102.7,136.2C102.7,136.2,102.7,136.2,102.7,136.2c1.8,0.1,3.8,0.2,5.9,0.3
		c2.1,0.1,4.4,0.2,6.7,0.3c2.3,0.1,4.6,0.1,6.7,0.2c2.1,0,4.2,0,5.9,0.1c1.7,0,3.1,0,4.2,0c0.1,0,0.2,0,0.4,0
		c-0.5,1.4-0.9,2.8-1.3,4.3c-0.2,0-0.4,0-0.6,0c-1-0.1-2.4-0.2-4.1-0.3c-1.7-0.1-3.7-0.2-5.9-0.3c-2.1-0.1-4.4-0.2-6.7-0.3
		c-2.3-0.1-4.6-0.1-6.7-0.2c-1.7,0-3.3,0-4.8,0C102.4,138.8,102.5,137.5,102.7,136.2z M103.8,157.9c2.1,0.1,4.4,0.2,6.7,0.3
		c2.3,0.1,4.6,0.1,6.7,0.2c2.1,0,4.2,0,5.9,0.1c1.4,0,2.6,0,3.6,0c-0.3,1.5-0.6,2.9-0.9,4.4c-0.1,0-0.2,0-0.3,0
		c-1-0.1-2.4-0.2-4.1-0.3c-1.7-0.1-3.7-0.2-5.9-0.3c-2.1-0.1-4.4-0.2-6.7-0.3c-1.9-0.1-3.8-0.1-5.7-0.1c-0.2-1.3-0.4-2.6-0.5-3.9
		C103,157.9,103.4,157.9,103.8,157.9z M113.3,106.8c0.6,0,1.3,0.1,2,0.1c1.7,0.1,3.7,0.2,5.9,0.3c2.1,0.1,4.4,0.2,6.7,0.3
		c2.3,0.1,4.6,0.1,6.7,0.2c2.1,0,4.1,0,5.9,0.1c1.5,0,2.7,0,3.6,0c-0.6,1.2-1.2,2.5-1.7,3.7c-0.2,0-0.5,0-0.9-0.1
		c-1-0.1-2.4-0.2-4.1-0.3c-1.7-0.1-3.7-0.2-5.9-0.3c-2.1-0.1-4.4-0.2-6.7-0.3c-2.3-0.1-4.6-0.1-6.7-0.2c-2.1,0-4.2,0-5.9-0.1
		c-0.4,0-0.7,0-1.1,0C111.9,109.1,112.5,107.9,113.3,106.8z M178.8,50.2c0.3,0.2,0.6,0.5,0.9,0.7c-1.4,1.9-2.8,3.8-4.2,5.6
		c-1-0.1-2.4-0.2-4.1-0.3c-0.4,0-0.8,0-1.2-0.1C173,54.1,176,52.2,178.8,50.2z M169.3,56.7c0.7,0,1.4,0,2,0c1.7,0,3,0,4,0
		c-0.9,1.2-1.8,2.5-2.7,3.7c-0.3,0-0.6-0.1-1.1-0.1c-1-0.1-2.4-0.2-4.1-0.3c-0.8,0-1.6-0.1-2.5-0.1
		C166.4,58.8,167.9,57.7,169.3,56.7z M162.7,61.6c0.5-0.4,1-0.7,1.4-1.1c1.2,0,2.3,0,3.3,0c1.7,0,3.2,0,4.2,0c0.4,0,0.8,0,1.1,0
		c-1,1.4-2,2.8-3,4.3c-0.1,0-0.3,0-0.4,0c-1-0.1-2.4-0.2-4.1-0.3c-1.6-0.1-3.5-0.2-5.5-0.3C160.6,63.2,161.6,62.4,162.7,61.6z
		 M158.6,64.8c0.2,0,0.3,0,0.5,0c2.1,0,4.2,0,5.9,0.1c1.7,0,3.1,0,4.2,0c0.1,0,0.2,0,0.3,0c-1,1.5-2.1,3-3.1,4.5
		c-0.2,0-0.4,0-0.7-0.1c-1-0.1-2.4-0.2-4.1-0.3c-1.7-0.1-3.7-0.2-5.9-0.3c-0.6,0-1.2-0.1-1.8-0.1C155.5,67.3,157.1,66,158.6,64.8z
		 M143.2,77.4c2.1,0.1,4.2,0.1,6.2,0.2c2.1,0,4.2,0,5.9,0.1c1.7,0,3.2,0,4.2,0c1,0,1.6,0,1.6,0s-0.6,0-1.6-0.1
		c-1-0.1-2.4-0.2-4.1-0.3c-1.7-0.1-3.7-0.2-5.9-0.3c-1.7-0.1-3.4-0.1-5.2-0.2c1.4-1.2,2.8-2.3,4.2-3.5c1.1,0,2.3,0.1,3.4,0.1
		c2.1,0,4.2,0,5.9,0.1c1.7,0,3.1,0,4.2,0c1,0,1.6,0,1.6,0s-0.6,0-1.6-0.1c-1-0.1-2.4-0.2-4.1-0.3c-1.7-0.1-3.7-0.2-5.9-0.3
		c-0.8,0-1.6-0.1-2.4-0.1c1.2-1,2.4-2,3.7-3c0.9,0,1.8,0,2.7,0.1c2.1,0,4.2,0,5.9,0.1c1.7,0,3.1,0,4.2,0c0.2,0,0.5,0,0.6,0
		c-2.8,4.2-5.6,8.4-8.2,12.7c-1-0.1-2.4-0.2-4-0.3c-1.7-0.1-3.7-0.2-5.9-0.3c-2.1-0.1-4.4-0.2-6.7-0.3c-1,0-2-0.1-2.9-0.1
		C140.2,79.8,141.7,78.6,143.2,77.4z M137.7,81.9c1.3,0,2.5,0.1,3.8,0.1c2.3,0.1,4.6,0.1,6.7,0.2c2.1,0,4.2,0,5.9,0.1
		c1.6,0,2.9,0,3.9,0c-0.8,1.2-1.5,2.5-2.2,3.7c-0.2,0-0.7-0.1-1.4-0.1c-1-0.1-2.4-0.2-4.1-0.3c-1.7-0.1-3.7-0.2-5.9-0.3
		c-2.1-0.1-4.4-0.2-6.7-0.3c-1.2,0-2.3-0.1-3.5-0.1C135.4,83.9,136.5,82.9,137.7,81.9z M133.2,85.7
		C133.2,85.7,133.2,85.7,133.2,85.7c1.5,0,3,0,4.5,0.1c2.3,0.1,4.6,0.1,6.7,0.2c2.1,0,4.2,0,5.9,0.1c1.7,0,3.2,0,4.2,0
		c0.7,0,1.2,0,1.4,0c-0.9,1.4-1.7,2.9-2.5,4.4c-0.3,0-0.7-0.1-1.3-0.1c-1-0.1-2.4-0.2-4.1-0.3c-1.7-0.1-3.7-0.2-5.9-0.3
		c-2.1-0.1-4.4-0.2-6.7-0.3c-2.1-0.1-4.2-0.1-6.2-0.2C130.4,88,131.8,86.9,133.2,85.7z M128.3,89.9c0.1,0,0.2,0,0.2,0
		c2.1,0.1,4.4,0.2,6.7,0.3c2.3,0.1,4.6,0.1,6.7,0.2c2.1,0,4.2,0,5.9,0.1c1.7,0,3.2,0,4.2,0c0.6,0,1,0,1.3,0c-0.8,1.5-1.7,3-2.5,4.5
		c-0.2,0-0.3,0-0.5,0c-1-0.1-2.4-0.2-4.1-0.3c-1.7-0.1-3.7-0.2-5.9-0.3c-2.1-0.1-4.4-0.2-6.7-0.3c-2.3-0.1-4.6-0.1-6.7-0.2
		c-0.9,0-1.8,0-2.6,0C125.5,92.4,126.9,91.1,128.3,89.9z M123.5,94.3c1,0.1,2.1,0.1,3.2,0.2c2.1,0.1,4.4,0.2,6.7,0.3
		c2.3,0.1,4.6,0.1,6.7,0.2c2.1,0,4.1,0,5.9,0.1c1.7,0,3.2,0,4.2,0c0.2,0,0.3,0,0.5,0c-0.7,1.2-1.3,2.5-2,3.7c-0.2,0-0.4,0-0.7-0.1
		c-1-0.1-2.4-0.2-4.1-0.3c-1.7-0.1-3.7-0.2-5.9-0.3c-2.1-0.1-4.4-0.2-6.7-0.3c-2.3-0.1-4.6-0.1-6.7-0.2c-1.4,0-2.8,0-4.1,0
		C121.5,96.4,122.5,95.3,123.5,94.3z M119.3,98.7c0.2-0.3,0.4-0.5,0.7-0.7c1.4,0.1,2.9,0.2,4.5,0.2c2.1,0.1,4.4,0.2,6.7,0.3
		c2.3,0.1,4.6,0.1,6.7,0.2c2.1,0,4.2,0,5.9,0.1c1.7,0,3.2,0,4.2,0c0.3,0,0.5,0,0.7,0c-0.8,1.4-1.5,2.9-2.2,4.3c-0.2,0-0.5,0-0.9-0.1
		c-1-0.1-2.4-0.2-4.1-0.3c-1.7-0.1-3.7-0.2-5.9-0.3c-2.1-0.1-4.4-0.2-6.7-0.3c-2.3-0.1-4.6-0.1-6.7-0.2c-1.9,0-3.8,0-5.4-0.1
		C117.6,100.8,118.4,99.8,119.3,98.7z M116.4,102.3c1.7,0.1,3.6,0.2,5.7,0.3c2.1,0.1,4.4,0.2,6.7,0.3c2.3,0.1,4.6,0.1,6.7,0.2
		c2.1,0,4.1,0,5.9,0.1c1.7,0,3.2,0,4.2,0c0.3,0,0.6,0,0.8,0c-0.7,1.5-1.5,3-2.2,4.4c-1-0.1-2.2-0.2-3.7-0.3
		c-1.7-0.1-3.7-0.2-5.9-0.3c-2.1-0.1-4.4-0.2-6.7-0.3c-2.3-0.1-4.6-0.1-6.7-0.2c-2.1,0-4.2,0-5.9-0.1c-0.7,0-1.3,0-1.8,0
		C114.4,105,115.4,103.7,116.4,102.3z M111,110.6c0.4,0,0.8,0.1,1.3,0.1c1.7,0.1,3.7,0.2,5.9,0.3c2.1,0.1,4.4,0.2,6.7,0.3
		c2.3,0.1,4.6,0.1,6.7,0.2c2.1,0,4.1,0,5.9,0.1c1.7,0,3.2,0,4.2,0c0.3,0,0.6,0,0.8,0c-0.7,1.4-1.3,2.8-1.9,4.3c-0.1,0-0.3,0-0.5,0
		c-1-0.1-2.4-0.2-4.1-0.3c-1.7-0.1-3.7-0.2-5.9-0.3c-2.1-0.1-4.4-0.2-6.7-0.3c-2.3-0.1-4.6-0.1-6.7-0.2c-2.1,0-4.1,0-5.9-0.1
		c-0.6,0-1.2,0-1.8,0C109.5,113.3,110.2,111.9,111,110.6z M108.7,115c0.6,0,1.2,0.1,1.9,0.1c1.7,0.1,3.7,0.2,5.9,0.3
		c2.1,0.1,4.4,0.2,6.7,0.3c2.3,0.1,4.6,0.1,6.7,0.2c2.1,0,4.2,0,5.9,0.1c1.7,0,3.2,0,4.2,0c0.1,0,0.3,0,0.4,0
		c-0.6,1.5-1.3,3-1.9,4.5c-0.3,0-0.6-0.1-1.1-0.1c-1-0.1-2.4-0.2-4.1-0.3c-1.7-0.1-3.7-0.2-5.9-0.3c-2.1-0.1-4.4-0.2-6.7-0.3
		c-2.3-0.1-4.6-0.1-6.7-0.2c-2.1,0-4.1,0-5.9-0.1c-0.4,0-0.8,0-1.2,0C107.5,117.7,108.1,116.3,108.7,115z M122.7,188.3
		c-0.2,0-0.4,0-0.6-0.1c-1-0.1-2.4-0.2-4.1-0.3c-1.7-0.1-3.7-0.2-5.9-0.3c-0.6,0-1.2-0.1-1.8-0.1c-0.5-1.3-1-2.5-1.4-3.8
		c1.4,0,2.8,0.1,4.1,0.1c2.1,0,4.2,0,5.9,0.1c1.7,0,3.2,0,4.2,0c0,0,0,0,0,0C122.9,185.4,122.8,186.8,122.7,188.3z M122.5,192.1
		c-0.2,0-0.6,0-0.9-0.1c-1-0.1-2.4-0.2-4.1-0.3c-1.6-0.1-3.5-0.2-5.6-0.3c-0.4-1-0.8-2-1.2-3.1c0.5,0,1,0,1.4,0c2.1,0,4.2,0,5.9,0.1
		c1.7,0,3.2,0,4.2,0c0.2,0,0.4,0,0.6,0C122.6,189.7,122.5,190.9,122.5,192.1z M116.2,201.3c0.1,0,0.2,0,0.3,0c1.7,0,3.1,0,4.2,0
		c1,0,1.6,0,1.6,0s-0.6,0-1.6-0.1c-1-0.1-2.4-0.2-4.1-0.3c-0.2,0-0.4,0-0.6,0c-0.6-1.4-1.3-2.8-1.9-4.2c0.9,0,1.8,0,2.6,0
		c1.7,0,3.2,0,4.2,0c0.9,0,1.4,0,1.5,0c0,2.8,0,5.6,0,8.4c-0.2,0-0.7-0.1-1.5-0.1c-0.8-0.1-1.9-0.1-3.2-0.2
		C117.2,203.5,116.7,202.4,116.2,201.3z M122.4,196.6c-0.1,0-0.7-0.1-1.5-0.1c-1-0.1-2.4-0.2-4.1-0.3c-0.9,0-1.9-0.1-2.9-0.2
		c-0.6-1.3-1.1-2.5-1.6-3.8c1.9,0,3.7,0,5.2,0c1.7,0,3.2,0,4.2,0c0.4,0,0.7,0,1,0C122.4,193.6,122.4,195.1,122.4,196.6z M123,183.7
		c-1-0.1-2.4-0.2-4.1-0.3c-1.7-0.1-3.7-0.2-5.9-0.3c-1.4-0.1-2.9-0.1-4.4-0.2c-0.4-1.2-0.8-2.4-1.2-3.6c1.9,0.1,3.7,0.1,5.4,0.1
		c2.1,0,4.1,0,5.9,0.1c1.7,0,3.2,0,4.2,0c0.2,0,0.4,0,0.6,0C123.3,180.9,123.1,182.3,123,183.7C123,183.7,123,183.7,123,183.7z
		 M123.4,179.4c-0.2,0-0.4,0-0.6,0c-1-0.1-2.4-0.2-4.1-0.3c-1.7-0.1-3.7-0.2-5.9-0.3c-1.8-0.1-3.8-0.2-5.7-0.2c-0.3-1-0.6-2-0.9-3
		c2.1,0.1,4.3,0.1,6.3,0.2c2.1,0,4.1,0,5.9,0.1c1.7,0,3.2,0,4.2,0c0.6,0,1,0,1.3,0C123.7,176.9,123.5,178.2,123.4,179.4z
		 M123.8,175.7c-0.3,0-0.7-0.1-1.3-0.1c-1-0.1-2.4-0.2-4.1-0.3c-1.7-0.1-3.7-0.2-5.9-0.3c-2.1-0.1-4.3-0.2-6.6-0.3
		c-0.4-1.3-0.7-2.6-1-3.8c0.6,0,1.2,0,1.8,0.1c2.3,0.1,4.6,0.1,6.7,0.2c2.1,0,4.1,0,5.9,0.1c1.7,0,3.2,0,4.2,0c0.4,0,0.7,0,1,0
		C124.2,172.6,124,174.1,123.8,175.7z M118,205.1c1.2,0,2.2,0,3,0c0.7,0,1.3,0,1.5,0c0.1,3.4,0.2,6.7,0.5,10.2
		C121.2,211.8,119.6,208.4,118,205.1z M124.4,171c-0.3,0-0.6,0-1-0.1c-1-0.1-2.4-0.2-4.1-0.3c-1.7-0.1-3.7-0.2-5.9-0.3
		c-2.1-0.1-4.4-0.2-6.7-0.3c-0.7,0-1.3,0-2-0.1c-0.3-1.2-0.5-2.4-0.8-3.6c1.1,0,2.3,0.1,3.5,0.1c2.3,0.1,4.6,0.1,6.7,0.2
		c2.1,0,4.2,0,5.9,0.1c1.7,0,3.2,0,4.2,0c0.4,0,0.7,0,1,0C124.9,168.1,124.7,169.6,124.4,171z M109.8,310.2
		c-11,15.5-13.2,33.1-12.7,51.4c0.3,9.1,0.4,18.1,0.9,27.1c0.7,12-2.9,22.9-8.2,33.4c-11.7,23.1-24.1,45.9-35.4,69.2
		c-11.3,23.3-18.4,47.8-16.5,74.1c0.1,2,0.9,4.2,2.1,5.8c3.4,4.5,7,8.9,10.8,13.1c3.5,3.9,5.4,8.5,5.3,13.5
		c-0.2,13.1-0.9,26.3-1.4,40.6c-2.3-1.9-3.9-3.1-5.2-4.5c-6.5-7.1-13.3-13.9-19.4-21.4c-5.4-6.6-7.4-14.5-5.3-23.1
		c0.9-3.7,1.7-7.5,2.3-11.2c0.3-2.2,0.6-4.5,0.1-6.6c-8.4-34.5-1.2-66.8,13.2-98.1c7.8-17,16.4-33.5,24.4-50.4
		c7-14.9,9-30.7,7.5-47.1c-1.3-15.1-2.9-30.3,0.7-45.2c3.1-13.1,7.1-25.9,14.4-36.6c8.7,3.7,17.1,7.3,25.8,11
		C112.3,306.4,111.1,308.3,109.8,310.2z M139.6,382.8c0,2.4,0,4.9,0,7.3c-1.6,12.9-2.9,25.9-4.4,38.9c-3.2,26.7-9.2,53.3-24,76.6
		c-4.9,7.6-13.2,18.6-24.2,16.7c-6.3-1.1-13.2-7-14.4-12.8c-1.8-8.4,6-17.5,10.8-23.8c13.3-18,18.8-38.3,24.1-59.4
		c5.5-21.7,6-44.2,8.5-66.3c1.2-10.7,2.9-21.4,5.7-31.9c0.2-0.6,0.3-1.2,0.5-1.8c0.6,0.4,1.2,0.8,1.9,1.3c0,0,0,0,0,0
		c3.8,2.5,8.5,5.5,13.9,8.5c1.9,1.1,4,2.2,6.2,3.3c-0.8,3.3-1.5,6.6-2,9.8C140.1,360.2,139.7,371.5,139.6,382.8z M173.2,362.8
		c-0.2,2-0.3,3.9-0.4,5.9c-0.4,2.9-0.8,5.8-1.1,8.7c-2.6,24.5-1.5,49-1.7,73.6c-0.2,26.8-3.1,53.9-15.2,78.6c-4,8.1-11,19.8-22.1,19
		c-6.4-0.4-13.9-5.6-15.8-11.3c-2.7-8.2,4-18,8-24.8c11.2-19.2,14.3-40,17.2-61.4c3-22.1,0.9-44.5,0.9-66.7c0-10.8,0.5-21.6,2-32.3
		c0.6-3.8,1.4-7.5,2.3-11.1c7.9,3.8,17.1,7.5,27.4,10.4C174,355.1,173.6,359,173.2,362.8z M210.5,444.1c0.3,0,0.3,0.4,0,0.4
		S210.3,444.1,210.5,444.1z M207.4,367.8c0,0,0,0.1,0,0.1c0-0.8,0-1.7,0-2.5c0,0.2-0.1,0.5-0.1,0.7c-0.5,2.9-0.9,5.9-1.2,8.8
		c-0.7,4.5-1.2,9.1-0.9,13.5c0,0.4,0,0.7,0,1.1c-0.7,25.1,2.2,50,4,75c1.9,27.3,1.1,55-9.2,81c-3.4,8.5-9.5,20.9-20.8,20.9
		c-6.5,0-14.4-4.8-16.7-10.4c-3.4-8.2,2.7-18.6,6.1-25.8c9.8-20.3,11.3-41.7,12.5-63.7c1.3-22.7-2.5-45.4-4.3-68
		c-0.8-11-1.2-22-0.5-33.1c0.3-4.5,1-8.9,1.8-13.3c9.2,2.4,19.8,4.2,31.4,4.6C208.9,360.5,208.1,364.2,207.4,367.8z M252.7,398.6
		c-1.7,22.6-5.5,45.3-4.3,68c1.2,22,2.7,43.4,12.5,63.7c3.5,7.2,9.5,17.6,6.1,25.8c-2.3,5.6-10.3,10.4-16.7,10.4
		c-11.3,0-17.4-12.4-20.8-20.9c-10.3-26-11.1-53.7-9.2-81c1.8-25,4.7-49.9,4-75c0-0.4,0-0.7,0-1.1c0.3-4.4-0.2-9-0.9-13.5
		c-0.3-2.9-0.7-5.9-1.2-8.8c0-0.2-0.1-0.4-0.1-0.7c0,0.8,0,1.7,0,2.5c0,0,0-0.1,0-0.1c-0.7-3.6-1.4-7.1-2.2-10.6c0.1,0,0.2,0,0.3,0
		c0.1,0,0.1,0,0.2,0c-0.2,0-0.3,0-0.5,0c0-0.1,0-0.2-0.1-0.3c9.9-0.3,20.5-1.7,31.4-4.7c0.9,4.4,1.5,8.8,1.8,13.3
		C253.9,376.5,253.5,387.6,252.7,398.6z M304.6,512.5c4,6.8,10.7,16.6,8,24.8c-1.9,5.7-9.4,10.8-15.8,11.3
		c-11.1,0.8-18.2-10.9-22.1-19c-12.1-24.7-15-51.7-15.2-78.6c-0.1-24.6,0.9-49.1-1.7-73.6c-0.3-2.9-0.7-5.8-1.1-8.7
		c-0.1-2-0.2-3.9-0.4-5.9c-0.4-3.8-0.9-7.7-1.5-11.6c2.9-0.9,5.9-1.8,8.8-2.9c5.4-2,10.8-4.4,16.3-7.1c0,0,0,0,0,0
		c0.7-0.3,1.4-0.7,2-1.1c1.1,3.9,2,7.8,2.6,11.9c1.6,10.7,2,21.5,2,32.3c0,22.2-2,44.6,0.9,66.7
		C290.4,472.5,293.4,493.3,304.6,512.5z M313.6,360c2.5,22.1,3.1,44.6,8.5,66.3c5.3,21.1,10.7,41.4,24.1,59.4
		c4.7,6.4,12.6,15.4,10.8,23.8c-1.2,5.8-8.1,11.7-14.4,12.8c-11,1.9-19.3-9.1-24.2-16.7c-14.8-23.3-20.8-49.9-24-76.6
		c-1.6-13-2.8-26-4.4-38.9c0-2.4,0-4.9,0-7.3c-0.1-11.2-0.5-22.5-2.4-33.6c-0.6-3.6-1.4-7.2-2.3-10.8c1.4-0.8,2.8-1.6,4.2-2.4
		c0.1,0,0.1-0.1,0.2-0.1c0.6-0.3,1.1-0.7,1.7-1c5.1-3.2,10.3-6.7,15.5-10.7c0.4,1.3,0.8,2.6,1.2,3.9
		C310.7,338.6,312.4,349.3,313.6,360z M308.5,297.6c-0.5-0.3-1-0.6-1.5-0.9c-1.6-9.5-3.3-19-4.9-28.5c-0.5,0-1,0.1-1.6,0.1
		c0,1.7-0.2,3.4,0,5.1c2.4,13.9,3.2,28.2,8.8,41.4c0.5,1.1-0.9,3.8-2.1,4.8c-9.2,7.7-19.7,13.2-30.7,17.7
		c-19.9,8.2-40.5,13.6-62.1,14.1c-15.2,0.4-29.8-3.1-44.3-6.8c-17.3-4.4-33.6-11.1-48.3-21.3c-2.4-1.7-3.2-3.2-2.4-6.2
		c3.2-12.3,3.8-24.8,2.8-37.5c-0.1-1.1-0.7-2.3-1-3.4c-0.4,0-0.8,0-1.2,0c-0.2,1.4-0.5,2.7-0.6,4.1c-0.1,5.1,0,10.2-0.3,15.3
		c-0.3,4.7-1.4,5.7-6.3,4.6c-9.4-1.9-18.1-5.5-25.8-12.4c0.9-1.8,1.7-3.7,2.9-5.4c9.5-14.2,20.9-26.8,34.7-37c1.3-1,3.9-1.5,5.2-0.9
		c19.9,9.1,41.3,11.6,62.7,13.8c1.4,0.2,3.2,1.2,4.1,2.4c4.2,5.7,8.2,11.6,12.3,17.3c2.4,3.4,3.7,3.4,5.8-0.1
		c3.7-6.2,7-12.6,10.8-18.8c1-1.5,3-3.1,4.8-3.4c20.8-2.9,40.5-9.3,59.2-18.9c6.1-3.1,6.1-3,10.8,1.5c6.8,6.5,14.1,12.7,20.5,19.6
		c4.2,4.5,7.4,10,11.2,15.3C324,281.7,316.3,289.6,308.5,297.6z M404.8,591.9c-7.3,10.6-15.7,20.3-23.8,30.3
		c-0.3,0.4-0.9,0.5-2.3,1.2c-0.9-14.3-2.3-27.8-2.4-41.3c0-4.2,2.6-8.8,4.9-12.7c2.8-4.7,6.7-8.7,9.9-13.2c1.1-1.5,1.7-3.6,1.8-5.5
		c1.5-23.3-5.2-45-15-65.5c-8.4-17.7-18.8-34.5-28.3-51.8c-4.9-8.9-9.8-17.9-14.8-26.8c-8.8-15.5-8.9-32.5-8.4-49.6
		c0.5-15.7,0-31.2-6.2-45.9c-2.1-4.9-5.1-9.4-7.1-13c6.4-6.9,12.6-13.6,19.4-20.9c3.5,6.9,7,13.3,10.1,19.9
		c8.1,17.3,10.4,35.7,9.5,54.7c-0.6,12-1.2,23.9,1.3,35.9c2.7,12.6,8.6,23.6,14.3,34.8c7.2,14.1,15.4,27.7,22.3,42
		c10.3,21.1,15.4,43.8,16.2,67.2c0.3,7.8-1.9,15.7-2.7,23.5c-0.3,2.6-0.2,5.3,0.3,7.9c1,5,3.1,9.9,3.3,14.9
		C407.5,582.7,407.3,588.4,404.8,591.9z"/>
	<path class="st5" d="M165.9,173.1c-10.3,0-18.7,10.1-18.7,22.5c0,12.4,8.4,22.5,18.7,22.5c10.3,0,18.7-10.1,18.7-22.5
		C184.6,183.1,176.2,173.1,165.9,173.1z M167.6,186.9c-1,2.8-3.4,4.5-6.4,4.7c-2.3,0.2-4.3-0.9-5.6-2.6c-0.9-0.7-1.6-1.7-1.8-2.8
		c-1.2-4.6,3.6-11.7,8.9-9.8C166.5,177.8,169.1,182.8,167.6,186.9z M175.9,206.3c-0.9,0.9-2.1,1.6-3.4,1.6c-1.3,0-2.3-0.5-3.2-1.4
		c-1.6-1.6-1.6-4.4,0-6c0.5-0.5,1.2-0.9,1.9-1.1c1.6-0.7,3.5-0.4,4.7,0.9C177.5,201.9,177.5,204.7,175.9,206.3z"/>
	<path class="st5" d="M250.9,173.1c-10.3,0-18.7,10.1-18.7,22.5c0,12.4,8.4,22.5,18.7,22.5c10.3,0,18.7-10.1,18.7-22.5
		C269.6,183.1,261.3,173.1,250.9,173.1z M252.6,186.9c-1,2.8-3.4,4.5-6.4,4.7c-2.3,0.2-4.3-0.9-5.6-2.6c-0.9-0.7-1.6-1.7-1.8-2.8
		c-1.2-4.6,3.6-11.7,8.9-9.8C251.6,177.8,254.1,182.8,252.6,186.9z M260.9,206.3c-0.9,0.9-2.1,1.6-3.4,1.6c-1.3,0-2.3-0.5-3.2-1.4
		c-1.6-1.6-1.6-4.4,0-6c0.5-0.5,1.2-0.9,1.9-1.1c1.6-0.7,3.5-0.4,4.7,0.9C262.6,201.9,262.6,204.7,260.9,206.3z"/>
</g>
<g>
	
		<ellipse transform="matrix(0.9427 0.3336 -0.3336 0.9427 57.557 -42.7318)" class="st6" cx="153.2" cy="146.2" rx="8.4" ry="12.8"/>
	<path class="st6" d="M170.8,119.1c-1.4,5.9-8,11.6-12.4,10.2c-4.4-1.4-6.3-6.5-3.6-15.2c2.7-8.7,36.5-54.2,34.9-49.9
		C181.7,85,172.9,110.2,170.8,119.1z"/>
</g>
</svg>
